<svg width="16" height="16" viewBox="0 0 16 16" fill="none" xmlns="http://www.w3.org/2000/svg">
<path d="M6.27227 2L6.20016 2.375L5.92612 3.74519C5.48622 3.91827 5.08958 4.16166 4.729 4.45192L3.38766 3.99038L3.02708 3.875L2.83958 4.20673L1.9165 5.79327L1.729 6.125L2.00304 6.37019L3.0415 7.27885C3.00364 7.51502 2.95497 7.7512 2.95497 8C2.95497 8.2488 3.00364 8.48498 3.0415 8.72115L2.00304 9.62981L1.729 9.875L1.9165 10.2067L2.83958 11.7933L3.02708 12.125L3.38766 12.0096L4.729 11.5481C5.08958 11.8383 5.48622 12.0817 5.92612 12.2548L6.20016 13.625L6.27227 14H8.86843L8.94054 13.625L9.21458 12.2548C9.65449 12.0817 10.0511 11.8383 10.4117 11.5481L11.753 12.0096L12.1136 12.125L12.3011 11.7933L13.2242 10.2067L13.4117 9.875L13.1377 9.62981L12.0992 8.72115C12.1371 8.48498 12.1857 8.2488 12.1857 8C12.1857 7.7512 12.1371 7.51502 12.0992 7.27885L13.1377 6.37019L13.4117 6.125L13.2242 5.79327L12.3011 4.20673L12.1136 3.875L11.753 3.99038L10.4117 4.45192C10.0511 4.16166 9.65449 3.91827 9.21458 3.74519L8.94054 2.375L8.86843 2H6.27227ZM7.02227 2.92308H8.11843L8.3492 4.12019L8.40689 4.39423L8.6665 4.48077C9.19114 4.64483 9.66711 4.92248 10.0655 5.28846L10.2675 5.47596L10.5271 5.38942L11.6954 4.98558L12.2434 5.92308L11.3204 6.74519L11.104 6.91827L11.1761 7.19231C11.2356 7.45553 11.2627 7.72416 11.2627 8C11.2627 8.27584 11.2356 8.54447 11.1761 8.80769L11.1184 9.08173L11.3204 9.25481L12.2434 10.0769L11.6954 11.0144L10.5271 10.6106L10.2675 10.524L10.0655 10.7115C9.66711 11.0775 9.19114 11.3552 8.6665 11.5192L8.40689 11.6058L8.3492 11.8798L8.11843 13.0769H7.02227L6.7915 11.8798L6.73381 11.6058L6.4742 11.5192C5.94956 11.3552 5.4736 11.0775 5.07516 10.7115L4.87323 10.524L4.61362 10.6106L3.44535 11.0144L2.89727 10.0769L3.82035 9.25481L4.0367 9.08173L3.96458 8.80769C3.90509 8.54447 3.87804 8.27584 3.87804 8C3.87804 7.72416 3.90509 7.45553 3.96458 7.19231L4.0367 6.91827L3.82035 6.74519L2.89727 5.92308L3.44535 4.98558L4.61362 5.38942L4.87323 5.47596L5.07516 5.28846C5.4736 4.92248 5.94956 4.64483 6.4742 4.48077L6.73381 4.39423L6.7915 4.12019L7.02227 2.92308ZM7.57035 5.69231C6.30112 5.69231 5.26266 6.73077 5.26266 8C5.26266 9.26923 6.30112 10.3077 7.57035 10.3077C8.83958 10.3077 9.87804 9.26923 9.87804 8C9.87804 6.73077 8.83958 5.69231 7.57035 5.69231ZM7.57035 6.61538C8.34018 6.61538 8.95497 7.23017 8.95497 8C8.95497 8.76983 8.34018 9.38462 7.57035 9.38462C6.80052 9.38462 6.18573 8.76983 6.18573 8C6.18573 7.23017 6.80052 6.61538 7.57035 6.61538Z" fill="#444444"/>
</svg>
