<svg width="16" height="16" viewBox="0 0 16 16" fill="none" xmlns="http://www.w3.org/2000/svg">
<path d="M2 2V14H7.08019V12.1538H8.00386V14H13.084V2H2ZM2.92367 2.92308H12.1604V13.0769H8.92753V11.2308H6.15652V13.0769H2.92367V2.92308ZM3.84734 3.84615V4.76923H5.69468V3.84615H3.84734ZM6.61835 3.84615V4.76923H8.46569V3.84615H6.61835ZM9.38936 3.84615V4.76923H11.2367V3.84615H9.38936ZM3.84734 5.69231V6.61538H5.69468V5.69231H3.84734ZM6.61835 5.69231V6.61538H8.46569V5.69231H6.61835ZM9.38936 5.69231V6.61538H11.2367V5.69231H9.38936ZM3.84734 7.53846V8.46154H5.69468V7.53846H3.84734ZM6.61835 7.53846V8.46154H8.46569V7.53846H6.61835ZM9.38936 7.53846V8.46154H11.2367V7.53846H9.38936ZM3.84734 9.38462V10.3077H5.69468V9.38462H3.84734ZM6.61835 9.38462V10.3077H8.46569V9.38462H6.61835ZM9.38936 9.38462V10.3077H11.2367V9.38462H9.38936ZM3.84734 11.2308V12.1538H5.69468V11.2308H3.84734ZM9.38936 11.2308V12.1538H11.2367V11.2308H9.38936Z" fill="rgb(255, 255, 255)"/>
</svg>
