<svg width="16" height="16" viewBox="0 0 16 16" fill="none" xmlns="http://www.w3.org/2000/svg">
<path d="M8.32832 2L7.9297 2.90722L6.50014 6.10997L3.00873 6.4811L2.01904 6.59107L2.76131 7.25086L5.35925 9.60137L4.63073 13.0378L4.42454 14L5.29052 13.5052L8.32832 11.7457L11.3661 13.5052L12.2321 14L12.0259 13.0378L11.2974 9.60137L13.8953 7.25086L14.6376 6.59107L13.6479 6.4811L10.1565 6.10997L8.72695 2.90722L8.32832 2ZM8.32832 4.15808L9.45547 6.70103L9.56543 6.93471L9.81286 6.9622L12.5757 7.25086L10.5139 9.10653L10.3214 9.28522L10.3764 9.53265L10.9538 12.2406L8.54825 10.866L8.32832 10.7285L8.10839 10.866L5.70289 12.2406L6.28021 9.53265L6.33519 9.28522L6.14275 9.10653L4.0809 7.25086L6.84378 6.9622L7.09121 6.93471L7.20117 6.70103L8.32832 4.15808Z" fill="#444444"/>
</svg>
