<svg width="16" height="16" viewBox="0 0 16 16" fill="none" xmlns="http://www.w3.org/2000/svg">
<path d="M8.17939 2C7.66884 2 7.25572 2.41286 7.25572 2.92308C7.25572 2.96274 7.26474 3.0006 7.27015 3.03846C5.67357 3.44591 4.48471 4.89543 4.48471 6.61538V10.7692C4.48471 11.0306 4.28446 11.2308 4.02287 11.2308H3.56104V12.1538H6.88048C6.82816 12.2999 6.79388 12.4531 6.79388 12.6154C6.79388 13.3744 7.41989 14 8.17939 14C8.93889 14 9.56489 13.3744 9.56489 12.6154C9.56489 12.4531 9.53062 12.2999 9.4783 12.1538H12.7977V11.2308H12.3359C12.0743 11.2308 11.8741 11.0306 11.8741 10.7692V6.74519C11.8741 5.01082 10.7141 3.46394 9.08863 3.03846C9.09404 3.0006 9.10306 2.96274 9.10306 2.92308C9.10306 2.41286 8.68993 2 8.17939 2ZM7.97733 3.84615C8.04408 3.84075 8.11083 3.84615 8.17939 3.84615C8.20825 3.84615 8.23712 3.84615 8.26598 3.84615C9.77416 3.89123 10.9504 5.21274 10.9504 6.74519V10.7692C10.9504 10.9315 10.9847 11.0847 11.037 11.2308H5.32178C5.3741 11.0847 5.40838 10.9315 5.40838 10.7692V6.61538C5.40838 5.14964 6.53771 3.95072 7.97733 3.84615ZM8.17939 12.1538C8.43917 12.1538 8.64122 12.3558 8.64122 12.6154C8.64122 12.875 8.43917 13.0769 8.17939 13.0769C7.91961 13.0769 7.71755 12.875 7.71755 12.6154C7.71755 12.3558 7.91961 12.1538 8.17939 12.1538Z" fill="rgb(255, 255, 255)"/>
</svg>
