<svg width="16" height="16" viewBox="0 0 16 16" fill="none" xmlns="http://www.w3.org/2000/svg">
<path d="M7.56108 2C5.45675 2 3.74044 3.7152 3.74044 5.81818C3.74044 7.13281 4.41204 8.30043 5.42903 8.98864C3.48247 9.82386 2.10303 11.7543 2.10303 14H3.19464C3.19464 11.5838 5.14333 9.63636 7.56108 9.63636C9.97883 9.63636 11.9275 11.5838 11.9275 14H13.0191C13.0191 11.7543 11.6397 9.82386 9.69313 8.98864C10.7101 8.30043 11.3817 7.13281 11.3817 5.81818C11.3817 3.7152 9.66542 2 7.56108 2ZM7.56108 3.09091C9.07484 3.09091 10.2901 4.3054 10.2901 5.81818C10.2901 7.33097 9.07484 8.54545 7.56108 8.54545C6.04732 8.54545 4.83205 7.33097 4.83205 5.81818C4.83205 4.3054 6.04732 3.09091 7.56108 3.09091Z" fill="#444444"/>
</svg>
