<svg width="16" height="16" viewBox="0 0 16 16" fill="none" xmlns="http://www.w3.org/2000/svg">
<path d="M7.771 2C4.4627 2 1.771 4.69171 1.771 8C1.771 11.3083 4.4627 14 7.771 14C11.0793 14 13.771 11.3083 13.771 8C13.771 4.69171 11.0793 2 7.771 2ZM7.771 2.92308C10.5799 2.92308 12.8479 5.19111 12.8479 8C12.8479 9.25841 12.3918 10.4032 11.6364 11.2885L4.55465 4.0625C5.42905 3.34676 6.54864 2.92308 7.771 2.92308ZM3.90561 4.71154L10.9873 11.9375C10.1129 12.6532 8.99335 13.0769 7.771 13.0769C4.9621 13.0769 2.69407 10.8089 2.69407 8C2.69407 6.74159 3.1502 5.59676 3.90561 4.71154Z" fill="#444444"/>
</svg>
