<svg width="56" height="57" viewBox="0 0 56 57" fill="none" xmlns="http://www.w3.org/2000/svg">
<path d="M31.4721 49.1617H50.3739C50.4922 49.1617 50.6092 49.1381 50.7183 49.0923C50.8273 49.0465 50.9261 48.9795 51.0089 48.895C51.0917 48.8106 51.1568 48.7104 51.2005 48.6005C51.2441 48.4906 51.2653 48.373 51.263 48.2548C51.263 48.019 51.1693 47.7929 51.0026 47.6261C50.8358 47.4594 50.6097 47.3657 50.3739 47.3657H31.4721C31.2363 47.3657 31.0102 47.4594 30.8434 47.6261C30.6767 47.7929 30.583 48.019 30.583 48.2548C30.5807 48.373 30.6019 48.4906 30.6455 48.6005C30.6892 48.7104 30.7543 48.8106 30.8371 48.895C30.9199 48.9795 31.0187 49.0465 31.1277 49.0923C31.2368 49.1381 31.3538 49.1617 31.4721 49.1617V49.1617Z" fill="#E9511D"/>
<path d="M31.4721 41.711H50.3739C50.4922 41.711 50.6092 41.6874 50.7183 41.6416C50.8273 41.5958 50.9261 41.5288 51.0089 41.4443C51.0917 41.3599 51.1568 41.2597 51.2005 41.1498C51.2441 41.0399 51.2653 40.9224 51.263 40.8041C51.263 40.5683 51.1693 40.3422 51.0026 40.1754C50.8358 40.0087 50.6097 39.915 50.3739 39.915H31.4721C31.2363 39.915 31.0102 40.0087 30.8434 40.1754C30.6767 40.3422 30.583 40.5683 30.583 40.8041C30.5807 40.9224 30.6019 41.0399 30.6455 41.1498C30.6892 41.2597 30.7543 41.3599 30.8371 41.4443C30.9199 41.5288 31.0187 41.5958 31.1277 41.6416C31.2368 41.6874 31.3538 41.711 31.4721 41.711Z" fill="#E9511D"/>
<path d="M31.4724 34.2606H50.3742C50.5796 34.2193 50.7643 34.1082 50.8971 33.9461C51.0298 33.784 51.1024 33.581 51.1024 33.3715C51.1024 33.162 51.0298 32.959 50.8971 32.7969C50.7643 32.6348 50.5796 32.5237 50.3742 32.4824H31.4724C31.267 32.5237 31.0823 32.6348 30.9495 32.7969C30.8168 32.959 30.7443 33.162 30.7443 33.3715C30.7443 33.581 30.8168 33.784 30.9495 33.9461C31.0823 34.1082 31.267 34.2193 31.4724 34.2606V34.2606Z" fill="#E9511D"/>
<path d="M31.4721 26.7923H42.141C42.3768 26.7923 42.603 26.6986 42.7697 26.5319C42.9364 26.3651 43.0301 26.139 43.0301 25.9032C43.0302 25.6657 42.9371 25.4377 42.7708 25.2682C42.6046 25.0986 42.3785 25.001 42.141 24.9963H31.4721C31.3538 24.9963 31.2368 25.0199 31.1277 25.0657C31.0187 25.1115 30.9199 25.1785 30.8371 25.263C30.7543 25.3474 30.6892 25.4476 30.6455 25.5575C30.6019 25.6674 30.5807 25.785 30.583 25.9032C30.583 26.139 30.6767 26.3651 30.8434 26.5319C31.0102 26.6986 31.2363 26.7923 31.4721 26.7923Z" fill="#E9511D"/>
<path d="M25.4438 35.729H23.7723V37.5249H25.4438V35.729Z" fill="#E9511D"/>
<path d="M21.9586 35.729H20.2872V37.5249H21.9586V35.729Z" fill="#E9511D"/>
<path d="M18.4738 35.729H16.8024V37.5249H18.4738V35.729Z" fill="#E9511D"/>
<path d="M25.4438 42.9482H23.7723V44.7442H25.4438V42.9482Z" fill="#E9511D"/>
<path d="M21.9586 42.9482H20.2872V44.7442H21.9586V42.9482Z" fill="#E9511D"/>
<path d="M18.4738 42.9482H16.8024V44.7442H18.4738V42.9482Z" fill="#E9511D"/>
<path d="M25.4438 50.1497H23.7723V51.9456H25.4438V50.1497Z" fill="#E9511D"/>
<path d="M21.9586 50.1497H20.2872V51.9456H21.9586V50.1497Z" fill="#E9511D"/>
<path d="M18.4738 50.1497H16.8024V51.9456H18.4738V50.1497Z" fill="#E9511D"/>
<path d="M0 47.9983L0.054375 53.4911C0.054375 54.3237 0.7395 54.9941 1.566 54.9941H25.839L25.9151 55.1454C26.4262 56.2375 27.5464 56.9512 28.7535 56.962H52.896C54.6034 56.9512 55.9954 55.5671 55.9954 53.8587V27.9084C56.0171 27.6813 55.9627 27.4867 55.8214 27.3461L47.0779 18.6527C46.9582 18.5446 46.7951 18.4797 46.632 18.4689H38.3452V9.33223C38.3452 8.49966 37.671 7.82927 36.8336 7.82927H26.622V5.12611C26.622 4.29353 25.9477 3.62315 25.1104 3.62315H14.0614L11.0707 0.206351C10.9511 0.0765991 10.7989 -0.00990211 10.6031 0.000910546L2.7405 0.000910546C1.914 0.000910546 1.22887 0.671295 1.22887 1.50387V25.216C1.22887 27.0974 2.76225 28.622 4.6545 28.622H25.6215V32.0929H1.51162C0.67425 32.0929 0 32.7741 0 33.5958L0 39.1319C0 39.3698 0.06525 39.6077 0.19575 39.8131L0.28275 39.9537L0.206625 40.0942C0.076125 40.2997 0.010875 40.5484 0 40.7971L0 46.3331C0.010875 46.571 0.076125 46.8197 0.19575 47.036L0.271875 47.1657L0.19575 47.2955C0.076125 47.5117 0.010875 47.7604 0 47.9983ZM47.2627 20.6315L53.853 27.1839H49.1224C48.111 27.1731 47.2736 26.3405 47.2627 25.335V20.6315ZM46.0121 19.734V25.3241C46.0339 27.0109 47.4259 28.4058 49.1332 28.4058H54.7556V53.8155C54.7556 54.8211 53.9291 55.6536 52.9177 55.6645H28.7535C28.449 55.6645 28.1445 55.578 27.8835 55.4374L27.1984 55.0481L27.9814 54.94C28.7317 54.8319 29.2864 54.1831 29.2864 53.437V47.9658C29.2864 47.7172 29.232 47.4793 29.1015 47.263L29.0254 47.1333L29.1015 47.0035C29.2211 46.7873 29.2864 46.5494 29.2864 46.3007V40.7538C29.2864 40.5051 29.232 40.2672 29.1015 40.051L29.0254 39.9212L29.1015 39.7915C29.2211 39.586 29.2864 39.3482 29.2755 39.1103V33.5634C29.2755 32.7308 28.5904 32.0604 27.7639 32.0604H26.8177L26.8721 21.583C26.883 20.5666 27.7312 19.734 28.7535 19.734H46.0121V19.734ZM6.81862 9.38629V25.3674C6.8295 26.546 5.8725 27.5083 4.68712 27.5191C4.67625 27.5191 4.66537 27.5191 4.66537 27.5191C4.05637 27.5191 3.51262 27.3029 3.11025 26.9028C2.697 26.5027 2.45775 25.9513 2.45775 25.3782C2.45775 25.3241 2.45775 25.2701 2.45775 25.216V1.28762H10.2986L13.2892 4.70442C13.4089 4.82335 13.5829 4.90986 13.7786 4.90986H25.3931V7.88334H8.33025C7.50375 7.88334 6.81862 8.55372 6.81862 9.38629ZM7.29712 27.3786L7.54725 26.9677C7.86262 26.4379 8.03662 25.8432 8.0475 25.2268V9.08354H37.1599V18.5014H28.8514C27.1331 18.5014 25.7194 19.8962 25.7085 21.6046V27.3894L7.29712 27.3786ZM1.31587 33.3471H28.0357V39.2076H1.31587V33.3471ZM1.31587 40.6241H28.0357V46.4953H1.31587V40.6241ZM1.31587 47.728H28.0357V53.5884H1.31587V47.728Z" fill="black"/>
</svg>
