<svg width="56" height="53" viewBox="0 0 56 53" fill="none" xmlns="http://www.w3.org/2000/svg">
<path fill-rule="evenodd" clip-rule="evenodd" d="M20.8001 19.6C25.8811 19.6 30.0001 15.481 30.0001 10.4C30.0001 5.31898 25.8811 1.2 20.8001 1.2C15.7191 1.2 11.6001 5.31898 11.6001 10.4C11.6001 15.481 15.7191 19.6 20.8001 19.6ZM31.2001 10.4C31.2001 16.1438 26.5439 20.8 20.8001 20.8C15.0564 20.8 10.4001 16.1438 10.4001 10.4C10.4001 4.65624 15.0564 0 20.8001 0C26.5439 0 31.2001 4.65624 31.2001 10.4Z" fill="#1E1E24"/>
<path d="M20.7223 16C21.0635 16 21.3427 15.7269 21.3427 15.393V14.9074L21.4564 14.8972C22.7592 14.7151 23.7621 13.6629 23.8551 12.378C23.8551 10.9818 22.2526 10.3646 20.9601 9.879L20.9188 9.85877C19.9469 9.4743 18.8406 9.02914 18.8406 8.46256C18.8406 7.87575 19.8228 7.06635 20.7947 7.06635C21.839 7.06635 22.7488 7.69364 22.7488 8.41197C22.7488 8.57385 22.8109 8.72561 22.9246 8.83691C23.0383 8.9482 23.1934 9.01902 23.3589 9.01902C23.7 9.01902 23.9792 8.74585 23.9792 8.41197C23.9068 7.14729 22.9039 6.09508 21.6012 5.92308L21.4874 5.91297V5.40709C21.4874 5.07322 21.2186 4.80005 20.8671 4.80005C20.5259 4.81017 20.2571 5.07322 20.2467 5.40709V5.90285L20.1433 5.92308C19.616 6.03438 19.1198 6.25696 18.6958 6.58072C18.4063 6.82354 18.1685 7.11694 17.9928 7.45082C17.8273 7.74422 17.7446 8.0781 17.7446 8.41197C17.7446 8.7155 17.8273 9.01902 17.9824 9.27196C18.1582 9.55524 18.4063 9.80818 18.6958 10.0004C19.3059 10.3849 19.9572 10.6985 20.6396 10.9312L20.7637 10.9818C21.7459 11.3764 22.7592 11.7811 22.7592 12.3274C22.7592 12.8636 21.9217 13.6832 20.8051 13.6832C19.6988 13.6933 18.8406 13.0963 18.8406 12.3274C18.8406 12.0745 18.6752 11.8519 18.427 11.771C18.4063 11.771 18.3857 11.771 18.365 11.771C18.3236 11.771 18.2719 11.771 18.2306 11.7811C18.0755 11.7811 17.9307 11.8418 17.817 11.943C17.6826 12.0542 17.6102 12.2161 17.5999 12.3881C17.5999 12.722 17.6826 13.0559 17.8377 13.3594C18.0135 13.6933 18.2513 13.9867 18.5511 14.2295C18.975 14.5431 19.4713 14.7758 19.9986 14.8871L20.102 14.9175V15.393C20.102 15.7269 20.3811 16 20.7223 16Z" fill="#E9511D"/>
<path fill-rule="evenodd" clip-rule="evenodd" d="M5.20019 26.2C5.20019 25.6477 4.75247 25.2 4.20019 25.2H3.00019C2.4479 25.2 2.00019 25.6477 2.00019 26.2V50.8H5.20019V26.2ZM5.40019 24C5.95247 24 6.40019 24.4477 6.40019 25V52H0.800186V25C0.800186 24.4477 1.2479 24 1.80019 24H5.40019Z" fill="#E9511D"/>
<path fill-rule="evenodd" clip-rule="evenodd" d="M13.9999 35C13.9999 34.4478 13.5522 34 12.9999 34H11.7999C11.2476 34 10.7999 34.4478 10.7999 35V50.8001H13.9999V35ZM14.1999 32.8C14.7522 32.8 15.1999 33.2478 15.1999 33.8V52H9.59993V33.8C9.59993 33.2478 10.0476 32.8 10.5999 32.8H14.1999Z" fill="#E9511D"/>
<path fill-rule="evenodd" clip-rule="evenodd" d="M21.9999 28.5999C21.9999 28.0476 21.5522 27.5999 20.9999 27.5999H19.7999C19.2476 27.5999 18.7999 28.0476 18.7999 28.5999V50.7999H21.9999V28.5999ZM22.1999 26.3999C22.7522 26.3999 23.1999 26.8476 23.1999 27.3999V51.9999H17.5999V27.3999C17.5999 26.8476 18.0476 26.3999 18.5999 26.3999H22.1999Z" fill="#E9511D"/>
<path d="M0 51.8C0 51.4686 0.268629 51.2 0.6 51.2H23.4C23.7314 51.2 24 51.4686 24 51.8V51.8C24 52.1313 23.7314 52.4 23.4 52.4H0.599999C0.268629 52.4 0 52.1313 0 51.8V51.8Z" fill="#1E1E24"/>
<path d="M24.8 13.6C24.8 10.9491 26.9491 8.80005 29.6 8.80005H51.2C53.851 8.80005 56 10.9491 56 13.6V48C56 50.651 53.851 52.8 51.2 52.8H29.6C26.9491 52.8 24.8 50.651 24.8 48V13.6Z" fill="white"/>
<path fill-rule="evenodd" clip-rule="evenodd" d="M51.2 10H29.6C27.6118 10 26 11.6118 26 13.6V48C26 49.9883 27.6118 51.6 29.6 51.6H51.2C53.1882 51.6 54.8 49.9883 54.8 48V13.6C54.8 11.6118 53.1882 10 51.2 10ZM29.6 8.80005C26.9491 8.80005 24.8 10.9491 24.8 13.6V48C24.8 50.651 26.9491 52.8 29.6 52.8H51.2C53.851 52.8 56 50.651 56 48V13.6C56 10.9491 53.851 8.80005 51.2 8.80005H29.6Z" fill="#1E1E24"/>
<path d="M28.0002 14.3998C28.0002 13.5161 28.7166 12.7998 29.6002 12.7998H50.4002C51.2839 12.7998 52.0002 13.5161 52.0002 14.3998V23.1998H28.0002V14.3998Z" fill="white"/>
<path fill-rule="evenodd" clip-rule="evenodd" d="M50.4002 13.9998H29.6002C29.3793 13.9998 29.2002 14.1789 29.2002 14.3998V21.9998H50.8002V14.3998C50.8002 14.1789 50.6211 13.9998 50.4002 13.9998ZM29.6002 12.7998C28.7166 12.7998 28.0002 13.5161 28.0002 14.3998V23.1998H52.0002V14.3998C52.0002 13.5161 51.2839 12.7998 50.4002 12.7998H29.6002Z" fill="#1E1E24"/>
<path d="M28.0002 24.8H35.2002V32H28.0002V24.8Z" fill="white"/>
<path fill-rule="evenodd" clip-rule="evenodd" d="M34.0002 26H29.2002V30.8H34.0002V26ZM28.0002 24.8V32H35.2002V24.8H28.0002Z" fill="#1E1E24"/>
<path d="M28.0002 33.5999H35.2002V40.7999H28.0002V33.5999Z" fill="white"/>
<path fill-rule="evenodd" clip-rule="evenodd" d="M34.0002 34.7999H29.2002V39.5999H34.0002V34.7999ZM28.0002 33.5999V40.7999H35.2002V33.5999H28.0002Z" fill="#1E1E24"/>
<path d="M28.0002 42.3999H35.2002V49.5999H29.6002C28.7166 49.5999 28.0002 48.8836 28.0002 47.9999V42.3999Z" fill="white"/>
<path fill-rule="evenodd" clip-rule="evenodd" d="M34.0002 43.5999H29.2002V47.9999C29.2002 48.2208 29.3793 48.3999 29.6002 48.3999H34.0002V43.5999ZM28.0002 42.3999V47.9999C28.0002 48.8836 28.7166 49.5999 29.6002 49.5999H35.2002V42.3999H28.0002Z" fill="#1E1E24"/>
<path d="M36.8004 24.8H44.0004V32H36.8004V24.8Z" fill="white"/>
<path fill-rule="evenodd" clip-rule="evenodd" d="M42.8004 26H38.0004V30.8H42.8004V26ZM36.8004 24.8V32H44.0004V24.8H36.8004Z" fill="#1E1E24"/>
<path d="M36.8004 33.5999H44.0004V40.7999H36.8004V33.5999Z" fill="white"/>
<path fill-rule="evenodd" clip-rule="evenodd" d="M42.8004 34.7999H38.0004V39.5999H42.8004V34.7999ZM36.8004 33.5999V40.7999H44.0004V33.5999H36.8004Z" fill="#1E1E24"/>
<path d="M36.8004 42.3999H44.0004V49.5999H36.8004V42.3999Z" fill="white"/>
<path fill-rule="evenodd" clip-rule="evenodd" d="M42.8004 43.5999H38.0004V48.3999H42.8004V43.5999ZM36.8004 42.3999V49.5999H44.0004V42.3999H36.8004Z" fill="#1E1E24"/>
<path d="M45.6001 24.8H52.8001V32H45.6001V24.8Z" fill="white"/>
<path fill-rule="evenodd" clip-rule="evenodd" d="M51.6001 26H46.8001V30.8H51.6001V26ZM45.6001 24.8V32H52.8001V24.8H45.6001Z" fill="#1E1E24"/>
<path d="M45.6001 33.5999H52.8001V47.9999C52.8001 48.8835 52.0838 49.5999 51.2001 49.5999H45.6001V33.5999Z" fill="white"/>
<path fill-rule="evenodd" clip-rule="evenodd" d="M51.6001 34.7999H46.8001V48.3999H51.2001C51.421 48.3999 51.6001 48.2208 51.6001 47.9999V34.7999ZM45.6001 33.5999V49.5999H51.2001C52.0838 49.5999 52.8001 48.8835 52.8001 47.9999V33.5999H45.6001Z" fill="#1E1E24"/>
</svg>
