<svg width="56" height="49" viewBox="0 0 56 49" fill="none" xmlns="http://www.w3.org/2000/svg">
<mask id="path-1-inside-1" fill="white">
<path fill-rule="evenodd" clip-rule="evenodd" d="M18.5117 0.00494387C18.4894 0.00494387 18.4672 0.0063307 18.4451 0.0090747C18.4082 0.00310357 18.3704 0 18.3318 0H15.1703C15.1129 0 15.0571 0.00686307 15.0037 0.0198131C14.9853 0.0200979 14.9668 0.021386 14.9484 0.0236872C14.8655 0.034049 14.7864 0.0646339 14.7181 0.112754C14.6499 0.160875 14.5945 0.22505 14.5568 0.299628L12.6726 4.0829H1.77552C1.30462 4.0829 0.853008 4.26997 0.520037 4.60294C0.187063 4.93592 0 5.38753 0 5.85842V46.4481C0 46.9189 0.187063 47.3706 0.520037 47.7035C0.853008 48.0365 1.30462 48.2236 1.77552 48.2236H31.742C31.9753 48.2236 32.2062 48.1772 32.4215 48.0872C32.6367 47.9972 32.8319 47.8653 32.9957 47.6992C33.1595 47.5331 33.2887 47.3361 33.3757 47.1196C33.462 46.9048 33.5051 46.6751 33.5026 46.4437V5.86276C33.5051 5.63134 33.462 5.40166 33.3757 5.18689C33.2887 4.97042 33.1595 4.7734 32.9957 4.60729C32.8319 4.44117 32.6367 4.30927 32.4215 4.21925C32.2062 4.12923 31.9752 4.08289 31.742 4.0829H20.8861C20.8793 4.06526 20.872 4.04778 20.8641 4.03049L18.9463 0.224739C18.8961 0.156599 18.8307 0.101202 18.7552 0.0630207C18.6797 0.0248398 18.5963 0.00494387 18.5117 0.00494387ZM19.1587 4.0829L18.0443 1.82796H15.3853L14.2755 4.0829H19.1587ZM1.77552 5.47635H31.742C31.7907 5.47634 31.8389 5.48601 31.8838 5.50478C31.9287 5.52355 31.9694 5.55105 32.0035 5.58568C32.0377 5.62032 32.0646 5.6614 32.0827 5.70654C32.1009 5.75168 32.1098 5.79997 32.1091 5.84861L32.109 46.4481L32.1092 46.4579C32.1099 46.5065 32.1009 46.5548 32.0827 46.5999C32.0646 46.6451 32.0377 46.6861 32.0035 46.7208C31.9693 46.7554 31.9286 46.7829 31.8838 46.8017C31.8389 46.8205 31.7907 46.8301 31.742 46.8301H1.77552C1.67419 46.8301 1.577 46.7899 1.50535 46.7182C1.4337 46.6466 1.39344 46.5494 1.39344 46.4481V5.85842C1.39344 5.75709 1.4337 5.65991 1.50535 5.58825C1.577 5.5166 1.67419 5.47635 1.77552 5.47635Z"/>
</mask>
<path fill-rule="evenodd" clip-rule="evenodd" d="M18.5117 0.00494387C18.4894 0.00494387 18.4672 0.0063307 18.4451 0.0090747C18.4082 0.00310357 18.3704 0 18.3318 0H15.1703C15.1129 0 15.0571 0.00686307 15.0037 0.0198131C14.9853 0.0200979 14.9668 0.021386 14.9484 0.0236872C14.8655 0.034049 14.7864 0.0646339 14.7181 0.112754C14.6499 0.160875 14.5945 0.22505 14.5568 0.299628L12.6726 4.0829H1.77552C1.30462 4.0829 0.853008 4.26997 0.520037 4.60294C0.187063 4.93592 0 5.38753 0 5.85842V46.4481C0 46.9189 0.187063 47.3706 0.520037 47.7035C0.853008 48.0365 1.30462 48.2236 1.77552 48.2236H31.742C31.9753 48.2236 32.2062 48.1772 32.4215 48.0872C32.6367 47.9972 32.8319 47.8653 32.9957 47.6992C33.1595 47.5331 33.2887 47.3361 33.3757 47.1196C33.462 46.9048 33.5051 46.6751 33.5026 46.4437V5.86276C33.5051 5.63134 33.462 5.40166 33.3757 5.18689C33.2887 4.97042 33.1595 4.7734 32.9957 4.60729C32.8319 4.44117 32.6367 4.30927 32.4215 4.21925C32.2062 4.12923 31.9752 4.08289 31.742 4.0829H20.8861C20.8793 4.06526 20.872 4.04778 20.8641 4.03049L18.9463 0.224739C18.8961 0.156599 18.8307 0.101202 18.7552 0.0630207C18.6797 0.0248398 18.5963 0.00494387 18.5117 0.00494387ZM19.1587 4.0829L18.0443 1.82796H15.3853L14.2755 4.0829H19.1587ZM1.77552 5.47635H31.742C31.7907 5.47634 31.8389 5.48601 31.8838 5.50478C31.9287 5.52355 31.9694 5.55105 32.0035 5.58568C32.0377 5.62032 32.0646 5.6614 32.0827 5.70654C32.1009 5.75168 32.1098 5.79997 32.1091 5.84861L32.109 46.4481L32.1092 46.4579C32.1099 46.5065 32.1009 46.5548 32.0827 46.5999C32.0646 46.6451 32.0377 46.6861 32.0035 46.7208C31.9693 46.7554 31.9286 46.7829 31.8838 46.8017C31.8389 46.8205 31.7907 46.8301 31.742 46.8301H1.77552C1.67419 46.8301 1.577 46.7899 1.50535 46.7182C1.4337 46.6466 1.39344 46.5494 1.39344 46.4481V5.85842C1.39344 5.75709 1.4337 5.65991 1.50535 5.58825C1.577 5.5166 1.67419 5.47635 1.77552 5.47635Z" fill="#1E1E24"/>
<path d="M18.4451 0.0090747L18.4132 0.206507L18.4414 0.211078L18.4698 0.207543L18.4451 0.0090747ZM15.0037 0.0198131L15.0068 0.219789L15.0292 0.219445L15.0509 0.214179L15.0037 0.0198131ZM14.9484 0.0236872L14.9236 -0.174768V-0.174768L14.9484 0.0236872ZM14.7181 0.112754L14.6029 -0.0507325V-0.0507325L14.7181 0.112754ZM14.5568 0.299628L14.3783 0.209505L14.3778 0.210466L14.5568 0.299628ZM12.6726 4.0829V4.2829H12.7964L12.8516 4.17207L12.6726 4.0829ZM0.520037 4.60294L0.661458 4.74436L0.520037 4.60294ZM0.520037 47.7035L0.661458 47.5621H0.661458L0.520037 47.7035ZM31.742 48.2236L31.742 48.0236H31.742V48.2236ZM32.4215 48.0872L32.4986 48.2717L32.4215 48.0872ZM32.9957 47.6992L33.1381 47.8396L33.1381 47.8396L32.9957 47.6992ZM33.3757 47.1196L33.5612 47.1942L33.3757 47.1196ZM33.5026 46.4437H33.3025L33.3026 46.4459L33.5026 46.4437ZM33.5026 5.86276L33.3026 5.86057V5.86276H33.5026ZM33.3757 5.18689L33.1901 5.26147V5.26147L33.3757 5.18689ZM32.9957 4.60729L33.1381 4.46686V4.46686L32.9957 4.60729ZM32.4215 4.21925L32.4986 4.03474V4.03474L32.4215 4.21925ZM31.742 4.0829V4.2829H31.742L31.742 4.0829ZM20.8861 4.0829L20.6995 4.15492L20.7489 4.2829H20.8861V4.0829ZM20.8641 4.03049L21.0463 3.94765L21.0427 3.94048L20.8641 4.03049ZM18.9463 0.224739L19.1249 0.134735L19.1173 0.119752L19.1074 0.106236L18.9463 0.224739ZM18.7552 0.0630207L18.8455 -0.115446L18.8455 -0.115447L18.7552 0.0630207ZM19.1587 4.0829V4.2829H19.4807L19.338 3.99429L19.1587 4.0829ZM18.0443 1.82796L18.2236 1.73934L18.1686 1.62796H18.0443V1.82796ZM15.3853 1.82796V1.62796H15.2608L15.2059 1.73964L15.3853 1.82796ZM14.2755 4.0829L14.096 3.99458L13.9541 4.2829H14.2755V4.0829ZM31.742 5.47635V5.67635H31.742L31.742 5.47635ZM31.8838 5.50478L31.8066 5.68928L31.8066 5.68929L31.8838 5.50478ZM32.0035 5.58568L31.8611 5.72611L31.8611 5.72612L32.0035 5.58568ZM32.0827 5.70654L31.8972 5.78111L31.8972 5.78112L32.0827 5.70654ZM32.1091 5.84861L31.9091 5.84578V5.84861L32.1091 5.84861ZM32.109 46.4481H31.909L31.9091 46.4509L32.109 46.4481ZM32.1092 46.4579L31.9092 46.4607V46.4607L32.1092 46.4579ZM32.0827 46.5999L31.8972 46.5254L31.8972 46.5254L32.0827 46.5999ZM32.0035 46.7208L31.8611 46.5803L31.8611 46.5804L32.0035 46.7208ZM31.8838 46.8017L31.8066 46.6172L31.8066 46.6172L31.8838 46.8017ZM31.742 46.8301L31.7421 46.6301H31.742V46.8301ZM1.50535 46.7182L1.64677 46.5768H1.64677L1.50535 46.7182ZM1.50535 5.58825L1.36393 5.44683H1.36393L1.50535 5.58825ZM18.4698 0.207543C18.4837 0.205816 18.4977 0.204944 18.5117 0.204944V-0.195056C18.4811 -0.195056 18.4506 -0.193155 18.4204 -0.189393L18.4698 0.207543ZM18.3318 0.2C18.3596 0.2 18.3868 0.202238 18.4132 0.206507L18.4771 -0.188357C18.4296 -0.196031 18.3811 -0.2 18.3318 -0.2V0.2ZM15.1703 0.2H18.3318V-0.2H15.1703V0.2ZM15.0509 0.214179C15.089 0.204943 15.1289 0.2 15.1703 0.2V-0.2C15.0969 -0.2 15.0253 -0.191217 14.9566 -0.174553L15.0509 0.214179ZM14.9732 0.222143C14.9844 0.220745 14.9956 0.219962 15.0068 0.219789L15.0007 -0.180163C14.975 -0.179767 14.9492 -0.177973 14.9236 -0.174768L14.9732 0.222143ZM14.8334 0.276241C14.8748 0.247017 14.9229 0.228437 14.9732 0.222143L14.9236 -0.174768C14.8082 -0.160339 14.698 -0.117749 14.6029 -0.0507325L14.8334 0.276241ZM14.7354 0.389749C14.7582 0.344449 14.7919 0.305469 14.8334 0.276241L14.6029 -0.0507325C14.5078 0.0162807 14.4307 0.105652 14.3783 0.209506L14.7354 0.389749ZM12.8516 4.17207L14.7358 0.38879L14.3778 0.210466L12.4936 3.99374L12.8516 4.17207ZM1.77552 4.2829H12.6726V3.8829H1.77552V4.2829ZM0.661458 4.74436C0.956923 4.4489 1.35766 4.2829 1.77552 4.2829V3.8829C1.25157 3.8829 0.749094 4.09104 0.378615 4.46152L0.661458 4.74436ZM0.2 5.85842C0.2 5.44057 0.365991 5.03983 0.661458 4.74436L0.378615 4.46152C0.008134 4.832 -0.2 5.33448 -0.2 5.85842H0.2ZM0.2 46.4481V5.85842H-0.2V46.4481H0.2ZM0.661458 47.5621C0.365991 47.2666 0.2 46.8659 0.2 46.4481H-0.2C-0.2 46.972 0.00813399 47.4745 0.378615 47.845L0.661458 47.5621ZM1.77552 48.0236C1.35766 48.0236 0.956923 47.8576 0.661458 47.5621L0.378615 47.845C0.749094 48.2154 1.25157 48.4236 1.77552 48.4236V48.0236ZM31.742 48.0236H1.77552V48.4236H31.742V48.0236ZM32.3443 47.9027C32.1535 47.9825 31.9488 48.0236 31.742 48.0236L31.742 48.4236C32.0018 48.4236 32.259 48.372 32.4986 48.2717L32.3443 47.9027ZM32.8533 47.5588C32.7081 47.706 32.5351 47.8229 32.3443 47.9027L32.4986 48.2717C32.7383 48.1715 32.9557 48.0246 33.1381 47.8396L32.8533 47.5588ZM33.1901 47.045C33.113 47.2369 32.9985 47.4115 32.8533 47.5588L33.1381 47.8396C33.3205 47.6546 33.4643 47.4352 33.5612 47.1942L33.1901 47.045ZM33.3026 46.4459C33.3048 46.651 33.2666 46.8546 33.1901 47.045L33.5612 47.1942C33.6574 46.955 33.7054 46.6992 33.7025 46.4415L33.3026 46.4459ZM33.3026 5.86276V46.4437H33.7026V5.86276H33.3026ZM33.1901 5.26147C33.2666 5.45185 33.3048 5.65543 33.3026 5.86057L33.7025 5.86496C33.7054 5.60724 33.6574 5.35147 33.5612 5.1123L33.1901 5.26147ZM32.8533 4.74771C32.9985 4.89496 33.113 5.0696 33.1901 5.26147L33.5612 5.1123C33.4643 4.87125 33.3205 4.65185 33.1381 4.46686L32.8533 4.74771ZM32.3443 4.40376C32.5351 4.48355 32.7081 4.60047 32.8533 4.74771L33.1381 4.46686C32.9557 4.28187 32.7383 4.13498 32.4986 4.03474L32.3443 4.40376ZM31.742 4.2829C31.9487 4.28289 32.1535 4.32397 32.3443 4.40376L32.4986 4.03474C32.259 3.93449 32.0017 3.88289 31.7419 3.8829L31.742 4.2829ZM20.8861 4.2829H31.742V3.8829H20.8861V4.2829ZM20.6821 4.11326C20.6883 4.127 20.6941 4.14089 20.6995 4.15492L21.0727 4.01089C21.0645 3.98963 21.0557 3.96856 21.0462 3.94772L20.6821 4.11326ZM18.7677 0.314744L20.6855 4.12049L21.0427 3.94048L19.1249 0.134735L18.7677 0.314744ZM18.6649 0.241487C18.7124 0.265511 18.7536 0.300368 18.7852 0.343243L19.1074 0.106236C19.0387 0.0128303 18.949 -0.0631079 18.8455 -0.115446L18.6649 0.241487ZM18.5117 0.204944C18.565 0.204944 18.6175 0.217462 18.6649 0.241488L18.8455 -0.115447C18.742 -0.167783 18.6277 -0.195056 18.5117 -0.195056V0.204944ZM19.338 3.99429L18.2236 1.73934L17.865 1.91657L18.9794 4.17152L19.338 3.99429ZM18.0443 1.62796H15.3853V2.02796H18.0443V1.62796ZM15.2059 1.73964L14.096 3.99458L14.4549 4.17122L15.5648 1.91628L15.2059 1.73964ZM14.2755 4.2829H19.1587V3.8829H14.2755V4.2829ZM31.742 5.27635H1.77552V5.67635H31.742V5.27635ZM31.961 5.32027C31.8916 5.29125 31.8171 5.27634 31.742 5.27635L31.742 5.67635C31.7642 5.67634 31.7862 5.68076 31.8066 5.68928L31.961 5.32027ZM32.1459 5.44526C32.0932 5.39175 32.0303 5.34926 31.9609 5.32026L31.8066 5.68929C31.827 5.69783 31.8456 5.71035 31.8611 5.72611L32.1459 5.44526ZM32.2683 5.63196C32.2403 5.56222 32.1987 5.49876 32.1459 5.44525L31.8611 5.72612C31.8766 5.74188 31.8889 5.76057 31.8972 5.78111L32.2683 5.63196ZM32.3091 5.85143C32.3102 5.77647 32.2964 5.70185 32.2683 5.63195L31.8972 5.78112C31.9054 5.8015 31.9094 5.82347 31.9091 5.84578L32.3091 5.85143ZM32.309 46.4481L32.3091 5.84861L31.9091 5.84861L31.909 46.4481H32.309ZM32.3092 46.4551L32.309 46.4453L31.9091 46.4509L31.9092 46.4607L32.3092 46.4551ZM32.2683 46.6745C32.2963 46.6048 32.3102 46.5302 32.3092 46.455L31.9092 46.4607C31.9095 46.4828 31.9054 46.5048 31.8972 46.5254L32.2683 46.6745ZM32.1459 46.8612C32.1987 46.8077 32.2403 46.7442 32.2683 46.6745L31.8972 46.5254C31.8889 46.5459 31.8767 46.5646 31.8611 46.5803L32.1459 46.8612ZM31.9609 46.9862C32.0303 46.9572 32.0931 46.9147 32.1459 46.8612L31.8611 46.5804C31.8455 46.5961 31.827 46.6087 31.8066 46.6172L31.9609 46.9862ZM31.742 47.0301C31.8171 47.0301 31.8916 47.0152 31.961 46.9862L31.8066 46.6172C31.7862 46.6257 31.7642 46.6301 31.7421 46.6301L31.742 47.0301ZM1.77552 47.0301H31.742V46.6301H1.77552V47.0301ZM1.36393 46.8596C1.47309 46.9688 1.62114 47.0301 1.77552 47.0301V46.6301C1.72723 46.6301 1.68092 46.6109 1.64677 46.5768L1.36393 46.8596ZM1.19344 46.4481C1.19344 46.6024 1.25477 46.7505 1.36393 46.8596L1.64677 46.5768C1.61263 46.5427 1.59344 46.4963 1.59344 46.4481H1.19344ZM1.19344 5.85842V46.4481H1.59344V5.85842H1.19344ZM1.36393 5.44683C1.25477 5.55599 1.19344 5.70405 1.19344 5.85842H1.59344C1.59344 5.81013 1.61263 5.76382 1.64677 5.72968L1.36393 5.44683ZM1.77552 5.27635C1.62114 5.27635 1.47309 5.33767 1.36393 5.44683L1.64677 5.72968C1.68092 5.69553 1.72723 5.67635 1.77552 5.67635V5.27635Z" fill="white" mask="url(#path-1-inside-1)"/>
<path d="M4.33092 35.2922H20.7496C20.8523 35.2922 20.954 35.2722 21.0488 35.2335C21.1435 35.1947 21.2293 35.1379 21.3012 35.0664C21.3731 34.9949 21.4297 34.9101 21.4676 34.8171C21.5055 34.724 21.5239 34.6245 21.5219 34.5244C21.5219 34.3248 21.4405 34.1333 21.2957 33.9922C21.1509 33.851 20.9544 33.7717 20.7496 33.7717H4.33092C4.1261 33.7717 3.92967 33.851 3.78484 33.9922C3.64001 34.1333 3.55864 34.3248 3.55864 34.5244C3.55659 34.6245 3.57504 34.724 3.61293 34.8171C3.65082 34.9101 3.70738 34.9949 3.7793 35.0664C3.85122 35.1379 3.93705 35.1947 4.03177 35.2335C4.12649 35.2722 4.22819 35.2922 4.33092 35.2922Z" fill="#E9511D"/>
<path d="M17.4641 27.5159H28.3708C28.4735 27.5159 28.5752 27.496 28.6699 27.4572C28.7646 27.4184 28.8505 27.3617 28.9224 27.2902C28.9943 27.2187 29.0508 27.1339 29.0887 27.0408C29.1266 26.9478 29.1451 26.8483 29.143 26.7482C29.143 26.5485 29.0617 26.3571 28.9168 26.2159C28.772 26.0748 28.5756 25.9955 28.3708 25.9955H17.4641C17.2592 25.9955 17.0628 26.0748 16.918 26.2159C16.7731 26.3571 16.6918 26.5485 16.6918 26.7482C16.6897 26.8483 16.7082 26.9478 16.7461 27.0408C16.784 27.1339 16.8405 27.2187 16.9124 27.2902C16.9844 27.3617 17.0702 27.4184 17.1649 27.4572C17.2596 27.496 17.3613 27.5159 17.4641 27.5159Z" fill="#E9511D"/>
<path d="M17.4641 16.2135H28.3708C28.4735 16.2136 28.5752 16.1936 28.6699 16.1548C28.7646 16.1161 28.8505 16.0593 28.9224 15.9878C28.9943 15.9163 29.0508 15.8315 29.0887 15.7385C29.1266 15.6454 29.1451 15.5459 29.143 15.4458C29.143 15.2462 29.0617 15.0547 28.9168 14.9136C28.772 14.7724 28.5756 14.6931 28.3708 14.6931H17.4641C17.2592 14.6931 17.0628 14.7724 16.918 14.9136C16.7731 15.0547 16.6918 15.2462 16.6918 15.4458C16.6897 15.5459 16.7082 15.6454 16.7461 15.7385C16.784 15.8315 16.8405 15.9163 16.9124 15.9878C16.9844 16.0593 17.0702 16.1161 17.1649 16.1548C17.2596 16.1936 17.3613 16.2136 17.4641 16.2135Z" fill="#E9511D"/>
<path d="M17.4641 24.502H28.3708C28.4735 24.502 28.5752 24.4821 28.6699 24.4433C28.7646 24.4045 28.8505 24.3477 28.9224 24.2762C28.9943 24.2047 29.0508 24.12 29.0887 24.0269C29.1266 23.9339 29.1451 23.8344 29.143 23.7343C29.143 23.5346 29.0617 23.3432 28.9168 23.202C28.772 23.0609 28.5756 22.9816 28.3708 22.9816H17.4641C17.2592 22.9816 17.0628 23.0609 16.918 23.202C16.7731 23.3432 16.6918 23.5346 16.6918 23.7343C16.6897 23.8344 16.7082 23.9339 16.7461 24.0269C16.784 24.12 16.8405 24.2047 16.9124 24.2762C16.9844 24.3477 17.0702 24.4045 17.1649 24.4433C17.2596 24.4821 17.3613 24.502 17.4641 24.502Z" fill="#E9511D"/>
<path d="M17.4641 13.1995H28.3708C28.4735 13.1995 28.5752 13.1796 28.6699 13.1408C28.7646 13.102 28.8505 13.0452 28.9224 12.9738C28.9943 12.9023 29.0508 12.8175 29.0887 12.7244C29.1266 12.6314 29.1451 12.5319 29.143 12.4318C29.143 12.2321 29.0617 12.0407 28.9168 11.8995C28.772 11.7584 28.5756 11.6791 28.3708 11.6791H17.4641C17.2592 11.6791 17.0628 11.7584 16.918 11.8995C16.7731 12.0407 16.6918 12.2321 16.6918 12.4318C16.6897 12.5319 16.7082 12.6314 16.7461 12.7244C16.784 12.8175 16.8405 12.9023 16.9124 12.9738C16.9844 13.0452 17.0702 13.102 17.1649 13.1408C17.2596 13.1796 17.3613 13.1995 17.4641 13.1995Z" fill="#E9511D"/>
<path d="M4.33092 38.2887H28.2845C28.3873 38.2888 28.489 38.2688 28.5837 38.23C28.6784 38.1913 28.7642 38.1345 28.8362 38.063C28.9081 37.9915 28.9646 37.9067 29.0025 37.8137C29.0404 37.7206 29.0589 37.6211 29.0568 37.521C29.0568 37.3214 28.9754 37.1299 28.8306 36.9888C28.6858 36.8476 28.4894 36.7683 28.2845 36.7683H4.33092C4.1261 36.7683 3.92967 36.8476 3.78484 36.9888C3.64001 37.1299 3.55864 37.3214 3.55864 37.521C3.55659 37.6211 3.57504 37.7206 3.61293 37.8137C3.65082 37.9067 3.70738 37.9915 3.7793 38.063C3.85122 38.1345 3.93705 38.1913 4.03177 38.23C4.12649 38.2688 4.22819 38.2888 4.33092 38.2887Z" fill="#E9511D"/>
<path d="M4.33092 41.2853H28.2845C28.3873 41.2853 28.489 41.2654 28.5837 41.2266C28.6784 41.1879 28.7642 41.1311 28.8362 41.0596C28.9081 40.9881 28.9646 40.9033 29.0025 40.8102C29.0404 40.7172 29.0589 40.6177 29.0568 40.5176C29.0568 40.318 28.9754 40.1265 28.8306 39.9853C28.6858 39.8442 28.4894 39.7649 28.2845 39.7649H4.33092C4.1261 39.7649 3.92967 39.8442 3.78484 39.9853C3.64001 40.1265 3.55864 40.318 3.55864 40.5176C3.55659 40.6177 3.57504 40.7172 3.61293 40.8102C3.65082 40.9033 3.70738 40.9881 3.7793 41.0596C3.85122 41.1311 3.93705 41.1879 4.03177 41.2266C4.12649 41.2654 4.22819 41.2853 4.33092 41.2853Z" fill="#E9511D"/>
<path d="M4.33092 44.2819H28.2845C28.3873 44.2819 28.489 44.262 28.5837 44.2232C28.6784 44.1844 28.7642 44.1276 28.8362 44.0562C28.9081 43.9847 28.9646 43.8999 29.0025 43.8068C29.0404 43.7138 29.0589 43.6143 29.0568 43.5142C29.0568 43.3145 28.9754 43.1231 28.8306 42.9819C28.6858 42.8408 28.4894 42.7615 28.2845 42.7615H4.33092C4.1261 42.7615 3.92967 42.8408 3.78484 42.9819C3.64001 43.1231 3.55864 43.3145 3.55864 43.5142C3.55659 43.6143 3.57504 43.7138 3.61293 43.8068C3.65082 43.8999 3.70738 43.9847 3.7793 44.0562C3.85122 44.1276 3.93705 44.1844 4.03177 44.2232C4.12649 44.262 4.22819 44.2819 4.33092 44.2819Z" fill="#E9511D"/>
<path fill-rule="evenodd" clip-rule="evenodd" d="M38.0203 20.7216V17.725H37.2709V5.7384H36.5218V1.24353H36.5216V5.73851H37.2707V17.7251H38.0201V20.7217H38.7693V31.5467H38.7695V20.7216H38.0203ZM36.5218 31.5468H36.5216V36.0417H37.2707V48.0283H53.7523V48.0282H37.2709V36.0416H36.5218V31.5468ZM53.7525 36.0417H54.5015V36.0416H53.7525V36.0417ZM54.5017 32.7083H55.2508V32.7082H54.5017V32.7083ZM55.251 20.7217H56V20.7216H55.251V20.7217ZM53.7525 5.73851H54.5015V5.7384H53.7525V5.73851ZM38.2463 17.499H37.497V5.51235H36.7478V1.46947H54.2756V5.51235H53.5265V16.4527H55.7742V20.4956H55.025V32.4822H54.2756V35.8156H53.5265V47.8022H37.497V35.8156H36.7478V31.7727H38.9955V20.4956H38.2463V17.499ZM38.5432 5.51235V16.4527H52.4802V5.51235H38.5432ZM54.7279 17.4989L39.2926 17.499V19.4493H54.7279V17.4989ZM54.5019 19.2233V17.725L39.5186 17.725V17.7251L53.7523 17.7251H54.5017V19.2233H54.5019ZM53.2294 2.5157H37.794V4.46612H53.2294V2.5157ZM42.8327 7.32429C42.7508 7.37075 42.6762 7.4352 42.6087 7.51766C42.4839 7.67373 42.4292 7.85322 42.4448 8.05612C42.4604 8.25902 42.5463 8.4307 42.7024 8.57117C42.874 8.69603 43.0613 8.75066 43.2642 8.73505H47.7592C47.8985 8.73505 48.0225 8.70434 48.1311 8.64292C48.0225 8.70441 47.8984 8.73516 47.759 8.73516H43.264C43.0611 8.75077 42.8739 8.69614 42.7022 8.57128C42.5461 8.43081 42.4603 8.25913 42.4446 8.05623C42.429 7.85333 42.4837 7.67384 42.6085 7.51777C42.676 7.43525 42.7508 7.37076 42.8327 7.32429ZM48.1336 8.64151C48.1387 8.63897 48.1437 8.63638 48.1487 8.63376C48.1438 8.63635 48.1388 8.63889 48.1338 8.6414M48.2823 7.98589C48.2823 8.08927 48.2601 8.18539 48.2155 8.2769C48.1775 8.34099 48.1198 8.39565 48.0327 8.43922L48.0271 8.44203L48.0216 8.44514C47.9504 8.48586 47.865 8.509 47.7592 8.509H43.2556L43.2469 8.50967C43.1036 8.52069 42.9722 8.48494 42.8449 8.39525C42.7362 8.2941 42.6809 8.17814 42.6702 8.03878C42.659 7.89229 42.6967 7.77002 42.7845 7.65983C42.8875 7.53433 43.0015 7.47484 43.1332 7.46277H47.7592C47.865 7.46277 47.9504 7.48592 48.0216 7.52663L48.0271 7.52975L48.0327 7.53255C48.1138 7.57311 48.172 7.63128 48.2125 7.71239L48.2154 7.71801L48.2185 7.72345C48.2592 7.79471 48.2823 7.88008 48.2823 7.98589ZM53.9788 31.4359V20.4956H40.0417V31.4359H53.9788ZM49.2577 23.4922H44.7541L44.7454 23.4929C44.6022 23.5039 44.4707 23.4681 44.3435 23.3785C44.2347 23.2773 44.1795 23.1613 44.1687 23.022C44.1575 22.8755 44.1952 22.7532 44.283 22.6431C44.386 22.5175 44.5 22.458 44.6317 22.446H49.2577C49.3635 22.446 49.4489 22.4691 49.5202 22.5098L49.5256 22.5129L49.5312 22.5158C49.6123 22.5563 49.6705 22.6145 49.7111 22.6956L49.7139 22.7012L49.717 22.7067C49.7577 22.7779 49.7809 22.8633 49.7809 22.9691C49.7809 23.0725 49.7587 23.1686 49.714 23.2601C49.676 23.3242 49.6184 23.3789 49.5312 23.4224L49.5256 23.4252L49.5202 23.4283C49.4489 23.4691 49.3635 23.4922 49.2577 23.4922ZM43.9434 23.0393C43.959 23.2422 44.0448 23.4139 44.2009 23.5544C44.3726 23.6792 44.5599 23.7339 44.7628 23.7183H49.2577C49.3971 23.7183 49.521 23.6875 49.6297 23.6261C49.521 23.6876 49.397 23.7184 49.2575 23.7184H44.7626C44.5597 23.734 44.3724 23.6793 44.2007 23.5545C44.0446 23.414 43.9588 23.2423 43.9432 23.0394C43.9276 22.8365 43.9822 22.657 44.107 22.501C44.1757 22.4171 44.2517 22.3519 44.3352 22.3052C44.2518 22.3519 44.1758 22.4171 44.1072 22.5009C43.9824 22.6569 43.9278 22.8364 43.9434 23.0393ZM53.2294 34.7694V32.8189H37.794V34.7694H53.2294ZM52.4802 46.756V35.8156H38.5432V46.756H52.4802ZM47.7592 38.8122H43.2556L43.2469 38.8129C43.1037 38.8239 42.9722 38.7882 42.8449 38.6985C42.7362 38.5973 42.6809 38.4814 42.6702 38.342C42.659 38.1956 42.6967 38.0733 42.7844 37.9631C42.8875 37.8376 43.0014 37.7781 43.1332 37.766H47.7592C47.865 37.766 47.9504 37.7892 48.0216 37.8299L48.0271 37.833L48.0327 37.8358C48.1138 37.8763 48.172 37.9345 48.2125 38.0156L48.2154 38.0212L48.2185 38.0267C48.2592 38.0979 48.2823 38.1833 48.2823 38.2891C48.2823 38.3925 48.2601 38.4886 48.2155 38.5801C48.1775 38.6442 48.1198 38.6989 48.0327 38.7425L48.0271 38.7453L48.0216 38.7484C47.9504 38.7891 47.865 38.8122 47.7592 38.8122ZM42.4448 38.3594C42.4604 38.5623 42.5463 38.7339 42.7024 38.8744C42.874 38.9993 43.0613 39.0539 43.2642 39.0383H47.7592C47.8985 39.0383 48.0225 39.0076 48.1311 38.9462C48.0225 39.0076 47.8984 39.0384 47.759 39.0384H43.264C43.0611 39.054 42.8739 38.9994 42.7022 38.8745C42.5461 38.734 42.4603 38.5624 42.4446 38.3595C42.429 38.1566 42.4837 37.9771 42.6085 37.821C42.6569 37.7619 42.7089 37.7121 42.7647 37.6715C42.709 37.7121 42.657 37.7619 42.6087 37.8209C42.4839 37.977 42.4292 38.1565 42.4448 38.3594ZM52.254 16.2266H52.2542V5.7384H38.7693V5.73851H52.254V16.2266ZM53.7527 20.7216H40.2678V20.7217H53.7525V31.2099H53.7527V20.7216ZM53.0034 33.045H38.0201V33.0451H53.0032V34.5433H53.0034V33.045ZM52.2542 36.0416H38.7693V36.0417H52.254V46.5299H52.2542V36.0416ZM53.0034 4.24007V2.74175H38.0201V2.74186H53.0032V4.24007H53.0034Z" fill="#1E1E24"/>
<path fill-rule="evenodd" clip-rule="evenodd" d="M5.76309 20.4436C4.38297 20.4436 3.26415 21.5624 3.26415 22.9425V27.4909C3.26415 28.8711 4.38297 29.9899 5.76309 29.9899H10.3115C11.6916 29.9899 12.8104 28.8711 12.8104 27.4909V22.9425C12.8104 21.5624 11.6916 20.4436 10.3115 20.4436H5.76309ZM4.2822 22.9425C4.2822 22.1247 4.94522 21.4616 5.76309 21.4616H10.3115C11.1294 21.4616 11.7924 22.1247 11.7924 22.9425V27.4909C11.7924 28.3088 11.1294 28.9718 10.3115 28.9718H5.76309C4.94522 28.9718 4.2822 28.3088 4.2822 27.4909V22.9425Z" fill="#E9511D"/>
<path d="M7.02747 27.4846L5.13596 25.593C5.10887 25.566 5.08737 25.5339 5.07271 25.4985C5.05805 25.4632 5.0505 25.4253 5.0505 25.387C5.0505 25.3487 5.05805 25.3108 5.07271 25.2754C5.08737 25.2401 5.10887 25.2079 5.13596 25.1809L5.54661 24.7697C5.57366 24.7426 5.60578 24.7212 5.64114 24.7065C5.6765 24.6918 5.71441 24.6843 5.75269 24.6843C5.79097 24.6843 5.82887 24.6918 5.86424 24.7065C5.8996 24.7212 5.93172 24.7426 5.95876 24.7697L7.23404 26.045L9.96528 23.3113C9.99232 23.2842 10.0244 23.2627 10.0598 23.248C10.0952 23.2334 10.1331 23.2258 10.1714 23.2258C10.2096 23.2258 10.2475 23.2334 10.2829 23.248C10.3183 23.2627 10.3504 23.2842 10.3774 23.3113L10.7891 23.7234C10.8162 23.7505 10.8377 23.7826 10.8523 23.818C10.867 23.8533 10.8745 23.8912 10.8745 23.9295C10.8745 23.9678 10.867 24.0057 10.8523 24.0411C10.8377 24.0764 10.8162 24.1085 10.7891 24.1356L7.43812 27.4846C7.41108 27.5116 7.37895 27.5331 7.34359 27.5478C7.30823 27.5625 7.27033 27.57 7.23205 27.57C7.19377 27.57 7.15586 27.5625 7.1205 27.5478C7.08514 27.5331 7.05302 27.5116 7.02597 27.4846H7.02747Z" fill="#E9511D"/>
<path fill-rule="evenodd" clip-rule="evenodd" d="M5.76309 8.8866C4.38297 8.8866 3.26415 10.0054 3.26415 11.3855V15.9339C3.26415 17.314 4.38297 18.4329 5.76309 18.4329H10.3115C11.6916 18.4329 12.8104 17.314 12.8104 15.9339V11.3855C12.8104 10.0054 11.6916 8.8866 10.3115 8.8866H5.76309ZM4.2822 11.3855C4.2822 10.5677 4.94522 9.90464 5.76309 9.90464H10.3115C11.1294 9.90464 11.7924 10.5677 11.7924 11.3855V15.9339C11.7924 16.7518 11.1294 17.4148 10.3115 17.4148H5.76309C4.94522 17.4148 4.2822 16.7518 4.2822 15.9339V11.3855Z" fill="#E9511D"/>
<path d="M7.02747 15.9274L5.13596 14.0359C5.10887 14.0089 5.08737 13.9767 5.07271 13.9414C5.05805 13.906 5.0505 13.8681 5.0505 13.8298C5.0505 13.7916 5.05805 13.7537 5.07271 13.7183C5.08737 13.6829 5.10887 13.6508 5.13596 13.6238L5.54661 13.2126C5.57366 13.1855 5.60578 13.164 5.64114 13.1494C5.6765 13.1347 5.71441 13.1272 5.75269 13.1272C5.79097 13.1272 5.82887 13.1347 5.86424 13.1494C5.8996 13.164 5.93172 13.1855 5.95876 13.2126L7.23404 14.4879L9.96528 11.7542C9.99232 11.7271 10.0244 11.7056 10.0598 11.6909C10.0952 11.6762 10.1331 11.6687 10.1714 11.6687C10.2096 11.6687 10.2475 11.6762 10.2829 11.6909C10.3183 11.7056 10.3504 11.7271 10.3774 11.7542L10.7891 12.1663C10.8162 12.1934 10.8377 12.2255 10.8523 12.2608C10.867 12.2962 10.8745 12.3341 10.8745 12.3724C10.8745 12.4107 10.867 12.4486 10.8523 12.4839C10.8377 12.5193 10.8162 12.5514 10.7891 12.5785L7.43812 15.9274C7.41108 15.9545 7.37895 15.976 7.34359 15.9907C7.30823 16.0053 7.27033 16.0129 7.23205 16.0129C7.19377 16.0129 7.15586 16.0053 7.1205 15.9907C7.08514 15.976 7.05302 15.9545 7.02597 15.9274H7.02747Z" fill="#E9511D"/>
</svg>
