<svg width="56" height="56" viewBox="0 0 56 56" fill="none" xmlns="http://www.w3.org/2000/svg">
<path fill-rule="evenodd" clip-rule="evenodd" d="M26.0234 12.3444V26.778H29.2799V12.3444H26.0234ZM25.6345 11.1777H29.6688C30.0984 11.1777 30.4466 11.526 30.4466 11.9555V27.9447H24.8568V11.9555C24.8568 11.526 25.205 11.1777 25.6345 11.1777Z" fill="#E9511D"/>
<path fill-rule="evenodd" clip-rule="evenodd" d="M33.2101 18.7321V26.7783H36.4666V18.7321H33.2101ZM32.8212 17.5654H36.8555C37.2851 17.5654 37.6333 17.9137 37.6333 18.3432V27.945H32.0435V18.3432C32.0435 17.9137 32.3917 17.5654 32.8212 17.5654Z" fill="#E9511D"/>
<path fill-rule="evenodd" clip-rule="evenodd" d="M40.3973 15.5385V26.7784H43.6538V15.5385H40.3973ZM40.0084 14.3718H44.0426C44.4722 14.3718 44.8204 14.72 44.8204 15.1496V27.9451H39.2306V15.1496C39.2306 14.7201 39.5788 14.3718 40.0084 14.3718Z" fill="#E9511D"/>
<path d="M23.2597 27.7453C23.2597 27.4146 23.5278 27.1465 23.8585 27.1465H46.6173C46.948 27.1465 47.2161 27.4146 47.2161 27.7453V27.7453C47.2161 28.076 46.948 28.3441 46.6173 28.3441H23.8585C23.5278 28.3441 23.2597 28.076 23.2597 27.7453V27.7453Z" fill="#1E1E24"/>
<path fill-rule="evenodd" clip-rule="evenodd" d="M35.2378 40.3516C46.0603 40.3516 54.8333 31.5796 54.8333 20.7591C54.8333 9.93867 46.0603 1.16667 35.2378 1.16667C24.4153 1.16667 15.6422 9.93867 15.6422 20.7591C15.6422 31.5796 24.4153 40.3516 35.2378 40.3516ZM35.2378 41.5182C46.7044 41.5182 56 32.2241 56 20.7591C56 9.29417 46.7044 0 35.2378 0C23.7711 0 14.4755 9.29417 14.4755 20.7591C14.4755 32.2241 23.7711 41.5182 35.2378 41.5182Z" fill="#1E1E24"/>
<path fill-rule="evenodd" clip-rule="evenodd" d="M35.2377 37.9563C44.7371 37.9563 52.4376 30.2567 52.4376 20.7591C52.4376 11.2615 44.7371 3.56193 35.2377 3.56193C25.7383 3.56193 18.0378 11.2615 18.0378 20.7591C18.0378 30.2567 25.7383 37.9563 35.2377 37.9563ZM35.2377 39.1229C45.3813 39.1229 53.6043 30.9012 53.6043 20.7591C53.6043 10.617 45.3813 2.39526 35.2377 2.39526C25.0941 2.39526 16.8711 10.617 16.8711 20.7591C16.8711 30.9012 25.0941 39.1229 35.2377 39.1229Z" fill="#1E1E24"/>
<path fill-rule="evenodd" clip-rule="evenodd" d="M17.0084 37.2804L18.7994 39.0627L21.8166 36.0605L22.6728 36.8983L19.6483 39.9076L21.4242 41.6749L8.64722 54.5097C6.67558 56.4903 3.47144 56.4978 1.49056 54.5264C-0.490309 52.5551 -0.497792 49.3514 1.47385 47.3708L14.2508 34.536L16.1594 36.4355L19.1921 33.418L20.0299 34.274L17.0084 37.2804ZM2.33557 53.6776C0.823569 52.1729 0.817856 49.7275 2.32281 48.2157L14.2547 36.2297L19.7302 41.6788L7.79825 53.6648C6.2933 55.1766 3.84758 55.1823 2.33557 53.6776Z" fill="#1E1E24"/>
</svg>
