<svg width="56" height="57" viewBox="0 0 56 57" fill="none" xmlns="http://www.w3.org/2000/svg">
<path d="M3.92914 36.1C3.92914 35.6931 4.25898 35.3633 4.66587 35.3633H20.874C21.2809 35.3633 21.6107 35.6931 21.6107 36.1V36.1C21.6107 36.5069 21.2809 36.8367 20.874 36.8367H4.66587C4.25898 36.8367 3.92914 36.5069 3.92914 36.1V36.1Z" fill="#1E1E24"/>
<path d="M9.82324 5.64835C9.82324 5.24147 10.1531 4.91162 10.56 4.91162H26.7681C27.175 4.91162 27.5048 5.24147 27.5048 5.64835V5.64835C27.5048 6.05524 27.175 6.38509 26.7681 6.38509H10.56C10.1531 6.38509 9.82324 6.05524 9.82324 5.64835V5.64835Z" fill="#1E1E24"/>
<path d="M3.92914 40.0292C3.92914 39.6223 4.25898 39.2925 4.66587 39.2925H16.9447C17.3516 39.2925 17.6815 39.6223 17.6815 40.0292V40.0292C17.6815 40.4361 17.3516 40.7659 16.9447 40.7659H4.66587C4.25898 40.7659 3.92914 40.4361 3.92914 40.0292V40.0292Z" fill="#1E1E24"/>
<path d="M8.84076 9.57755C8.84076 9.17067 9.17061 8.84082 9.57749 8.84082H21.8564C22.2633 8.84082 22.5931 9.17067 22.5931 9.57755V9.57755C22.5931 9.98444 22.2633 10.3143 21.8564 10.3143H9.57749C9.17061 10.3143 8.84076 9.98444 8.84076 9.57755V9.57755Z" fill="#1E1E24"/>
<path d="M3.92914 43.9584C3.92914 43.5515 4.25898 43.2217 4.66587 43.2217H10.0686C10.4755 43.2217 10.8053 43.5515 10.8053 43.9584V43.9584C10.8053 44.3653 10.4755 44.6951 10.0686 44.6951H4.66587C4.25898 44.6951 3.92914 44.3653 3.92914 43.9584V43.9584Z" fill="#1E1E24"/>
<path d="M19.6461 40.0292C19.6461 39.6223 19.976 39.2925 20.3829 39.2925H21.8563C22.2632 39.2925 22.593 39.6223 22.593 40.0292V40.0292C22.593 40.4361 22.2632 40.7659 21.8563 40.7659H20.3829C19.976 40.7659 19.6461 40.4361 19.6461 40.0292V40.0292Z" fill="#1E1E24"/>
<path d="M24.5577 9.57755C24.5577 9.17067 24.8876 8.84082 25.2945 8.84082H26.7679C27.1748 8.84082 27.5047 9.17067 27.5047 9.57755V9.57755C27.5047 9.98444 27.1748 10.3143 26.7679 10.3143H25.2945C24.8876 10.3143 24.5577 9.98444 24.5577 9.57755V9.57755Z" fill="#1E1E24"/>
<path d="M13.7524 43.9584C13.7524 43.5515 14.0822 43.2217 14.4891 43.2217H15.9626C16.3695 43.2217 16.6993 43.5515 16.6993 43.9584V43.9584C16.6993 44.3653 16.3695 44.6951 15.9626 44.6951H14.4891C14.0822 44.6951 13.7524 44.3653 13.7524 43.9584V43.9584Z" fill="#1E1E24"/>
<path d="M18.664 43.9584C18.664 43.5515 18.9938 43.2217 19.4007 43.2217H24.8034C25.2103 43.2217 25.5402 43.5515 25.5402 43.9584V43.9584C25.5402 44.3653 25.2103 44.6951 24.8034 44.6951H19.4007C18.9938 44.6951 18.664 44.3653 18.664 43.9584V43.9584Z" fill="#1E1E24"/>
<path d="M55.9671 45.8428V41.0647C55.9671 40.7437 55.7086 40.472 55.3764 40.472H49.728L50.6509 39.9041C53.2106 38.3114 55.0072 35.805 55.6963 32.8666C56.3855 29.9157 55.8932 26.8785 54.3058 24.3104C52.263 21.0015 48.5835 18.952 44.7072 18.952C44.6949 18.952 44.6826 18.952 44.658 18.952C43.7843 18.9643 42.9105 19.0631 42.0491 19.273L41.6677 19.3594V9.92664C41.6677 9.85256 41.68 9.81552 41.6677 9.76613C41.643 9.71675 41.6184 9.67971 41.5815 9.64267L32.0445 0.0740794C32.0199 0.0370397 31.9829 0.0123466 31.946 0L0.578376 0C0.258423 0 0 0.259278 0 0.592635L0 55.4114C0 55.7324 0.258423 56.004 0.578376 56.004H54.1827C54.5027 56.004 54.7734 55.7447 54.7734 55.4114V50.6333C54.7734 50.3123 54.515 50.053 54.1827 50.053H53.5674V46.4478H55.3764C55.6963 46.4231 55.9548 46.1638 55.9671 45.8428ZM50.0356 41.6573V45.1514H45.2363V41.6573H50.0356ZM52.3984 46.4354V49.9295H48.805V46.4354H52.3984ZM34.5302 45.1514V41.6573H38.1113V45.1514H34.5302ZM35.7362 46.4354V50.0406H32.1429V46.4354H35.7362ZM36.9053 46.4354H41.7046V50.0406H36.9053V46.4354ZM39.2926 45.1514V41.6573H44.0673V45.1514H39.2926ZM42.8613 46.4354H47.636V49.9295H42.8613V46.4354ZM41.68 20.6682C47.0699 19.1001 52.706 22.2115 54.2689 27.5946C55.8317 32.9777 52.7306 38.6447 47.3653 40.2128C46.8361 40.3609 46.0855 40.398 45.4948 40.398C45.0518 40.398 44.7072 40.3733 44.6457 40.3733C43.7104 40.3609 42.7875 40.2251 41.8892 39.9658C41.5815 39.8918 41.2616 39.7806 40.9662 39.6448C40.6709 39.5461 40.3509 39.3979 40.0556 39.2374C36.6715 37.4965 34.5549 34.0518 34.5426 30.2367V29.0391C34.5426 28.7552 34.5426 28.3971 34.7148 28.039C34.8133 27.6193 34.9363 27.1871 35.0963 26.7797C35.3178 26.1624 35.6009 25.5574 35.9454 24.9894C36.1915 24.582 36.4869 24.1869 36.8068 23.8165C37.6682 22.8165 38.7019 22.0016 39.8833 21.3843L40.0802 21.2978C40.314 21.1867 40.5724 21.0632 40.8185 20.9768L41.68 20.6682ZM35.7362 20.1496V23.3844L35.4409 23.7301H25.0055V20.1372H35.7362V20.1496ZM24.9932 18.952V15.3715H35.7239V18.952H24.9932ZM34.7271 24.8783L34.5056 25.3228C34.0503 26.2488 33.7304 27.2242 33.5581 28.2243L33.5089 28.4835H25.0055V24.8783H34.7271ZM32.1306 1.85198L39.711 9.45747H32.1306V1.85198ZM32.1675 54.8188H1.08292V54.5101L1.16906 1.02476H30.9615V10.0625C30.9615 10.3835 31.22 10.6551 31.5522 10.6551H40.5601V19.9027L40.3632 19.9767C39.3049 20.4089 38.3328 21.0015 37.459 21.7423L36.9545 22.1744V14.964C36.9545 14.8035 36.9053 14.6554 36.7945 14.5319C36.6838 14.4208 36.5361 14.3591 36.3884 14.3467H5.34074C5.02079 14.3467 4.76237 14.606 4.76237 14.9393V28.8767C4.76237 29.1977 5.02079 29.4693 5.34074 29.4693H33.3735V30.496C33.3735 34.4222 35.3547 38.0151 38.665 40.1016L39.5634 40.6696H33.9273C33.6073 40.6696 33.3366 40.9289 33.3366 41.2622V45.4601H31.5276C31.2077 45.4601 30.9369 45.7193 30.9369 46.0403V50.8185C30.9369 51.1395 31.1954 51.4111 31.5276 51.4111H32.1429V54.8188H32.1675ZM17.8435 23.7301V20.1372H23.8365V23.7301H17.8435ZM23.8242 24.8783V28.4835H17.8435V24.8783H23.8242ZM17.8435 18.952V15.3715H23.8365V18.952H17.8435ZM10.7061 23.7301V20.1372H16.6744V23.7301H10.7061ZM16.6744 24.8783V28.4835H10.7061V24.8783H16.6744ZM10.7061 18.952V15.3715H16.6744V18.952H10.7061ZM5.93143 23.7301V20.1372H9.4386V23.7301H5.93143ZM9.4386 24.8783V28.4835H5.93143V24.8783H9.4386ZM5.93143 18.952V15.3715H9.4386V18.952H5.93143ZM36.9299 54.8188H33.3366V51.1024H36.9299V54.8188ZM42.8736 54.8188H38.099V51.2136H42.8736V54.8188ZM48.8297 54.8188H44.055V51.1024H48.8297V54.8188ZM53.6043 51.1024V54.8188H50.011V51.1024H53.6043ZM54.798 45.2625H51.2047V41.6573H54.798V45.2625Z" fill="#1E1E24"/>
<path d="M3.92914 47.8876C3.92914 47.4807 4.25898 47.1509 4.66587 47.1509H10.0686C10.4755 47.1509 10.8053 47.4807 10.8053 47.8876V47.8876C10.8053 48.2945 10.4755 48.6243 10.0686 48.6243H4.66587C4.25898 48.6243 3.92914 48.2945 3.92914 47.8876V47.8876Z" fill="#1E1E24"/>
<path d="M13.7524 47.8876C13.7524 47.4807 14.0822 47.1509 14.4891 47.1509H15.9626C16.3695 47.1509 16.6993 47.4807 16.6993 47.8876V47.8876C16.6993 48.2945 16.3695 48.6243 15.9626 48.6243H14.4891C14.0822 48.6243 13.7524 48.2945 13.7524 47.8876V47.8876Z" fill="#1E1E24"/>
<path d="M18.664 47.8876C18.664 47.4807 18.9938 47.1509 19.4007 47.1509H24.8034C25.2103 47.1509 25.5402 47.4807 25.5402 47.8876V47.8876C25.5402 48.2945 25.2103 48.6243 24.8034 48.6243H19.4007C18.9938 48.6243 18.664 48.2945 18.664 47.8876V47.8876Z" fill="#1E1E24"/>
<path d="M44.4421 36.8366C44.8611 36.8366 45.2039 36.5011 45.2039 36.0912V35.4949L45.3435 35.4825C46.9432 35.2588 48.1746 33.9668 48.2889 32.3891C48.2889 30.6747 46.3211 29.9169 44.7341 29.3206L44.6834 29.2958C43.49 28.8237 42.1316 28.2771 42.1316 27.5814C42.1316 26.8608 43.3376 25.867 44.531 25.867C45.8133 25.867 46.9305 26.6372 46.9305 27.5193C46.9305 27.718 47.0066 27.9044 47.1463 28.041C47.2859 28.1777 47.4764 28.2646 47.6795 28.2646C48.0984 28.2646 48.4412 27.9292 48.4412 27.5193C48.3523 25.9664 47.1209 24.6744 45.5213 24.4632L45.3816 24.4508V23.8296C45.3816 23.4197 45.0515 23.0842 44.6199 23.0842C44.2009 23.0967 43.8709 23.4197 43.8582 23.8296V24.4383L43.7312 24.4632C43.0837 24.5998 42.4744 24.8732 41.9538 25.2707C41.5984 25.5688 41.3064 25.9291 41.0906 26.3391C40.8874 26.6993 40.7859 27.1093 40.7859 27.5193C40.7859 27.892 40.8874 28.2647 41.0779 28.5752C41.2937 28.9231 41.5984 29.2336 41.9538 29.4697C42.7029 29.9418 43.5027 30.3269 44.3406 30.6126L44.4929 30.6747C45.699 31.1592 46.9432 31.6561 46.9432 32.327C46.9432 32.9854 45.9148 33.9917 44.5437 33.9917C43.1853 34.0041 42.1316 33.2711 42.1316 32.327C42.1316 32.0164 41.9285 31.7431 41.6238 31.6437C41.5984 31.6437 41.573 31.6437 41.5476 31.6437C41.4968 31.6437 41.4333 31.6437 41.3825 31.6561C41.1921 31.6561 41.0144 31.7307 40.8747 31.8549C40.7097 31.9916 40.6208 32.1903 40.6081 32.4015C40.6081 32.8115 40.7097 33.2215 40.9001 33.5941C41.1159 34.0041 41.4079 34.3644 41.7761 34.6625C42.2966 35.0476 42.906 35.3334 43.5535 35.47L43.6804 35.5073V36.0912C43.6804 36.5011 44.0232 36.8366 44.4421 36.8366Z" fill="#E9511D"/>
</svg>
