<svg width="56" height="54" viewBox="0 0 56 54" fill="none" xmlns="http://www.w3.org/2000/svg">
<path d="M18.6637 13.6776C18.0221 13.6776 17.3806 13.5424 16.8066 13.2722C15.8105 12.7992 15.0676 11.9377 14.6962 10.9074C14.3417 9.87697 14.3923 8.72835 14.8819 7.74863C15.878 5.68786 18.3429 4.82639 20.4026 5.8061C21.3987 6.27907 22.1584 7.12365 22.5129 8.17092C22.8843 9.2182 22.8168 10.3499 22.3272 11.3465C21.635 12.7485 20.2338 13.6438 18.6637 13.6776ZM18.6637 6.51555C17.4988 6.49866 16.4351 7.15743 15.9287 8.20471C15.5741 8.93104 15.5235 9.75873 15.7936 10.5189C16.3338 12.1067 18.0559 12.9343 19.626 12.3938C20.4026 12.1236 21.0272 11.5661 21.3818 10.8398C21.7532 10.1135 21.8038 9.26888 21.5337 8.49186C21.2636 7.74863 20.7065 7.14054 19.9805 6.80271C19.5753 6.6169 19.1364 6.51555 18.6805 6.51555H18.6637V6.51555Z" fill="#E9511D"/>
<path d="M20.4536 19.1672C20.3186 19.201 20.2004 19.201 20.0653 19.1672C19.8459 19.0659 19.6939 18.8801 19.6095 18.6605L19.1199 17.2754C18.5628 17.3092 17.9888 17.2754 17.4316 17.174L16.7901 18.4916C16.6888 18.7112 16.5031 18.8801 16.2836 18.9476C16.0641 19.0321 15.8278 19.0321 15.6083 18.9476L13.4304 17.7821C12.9915 17.5625 12.8058 17.0389 13.0252 16.5997C13.0252 16.5997 13.0252 16.5997 13.0252 16.5828L13.6499 15.2484C13.2109 14.8768 12.8226 14.4376 12.485 13.9477L11.1006 14.4376C10.8811 14.5389 10.6279 14.5389 10.4084 14.4376C10.2058 14.3362 10.037 14.1504 9.95257 13.9308L9.15908 11.6505C9.00714 11.1775 9.2435 10.6708 9.71621 10.5187L11.1006 10.0289C11.0668 9.47147 11.1006 8.89716 11.2019 8.33974L9.86816 7.69786C9.42921 7.47826 9.2435 6.93773 9.46297 6.49855L10.5097 4.33643C10.7292 3.89725 11.2525 3.71144 11.6915 3.91414L13.0252 4.55602C13.4135 4.09995 13.8525 3.71144 14.3421 3.37361L13.8525 1.9885C13.7681 1.76891 13.7681 1.53243 13.8525 1.31284C13.9538 1.09325 14.1395 0.924332 14.359 0.856765L16.6044 0.0459693C17.0602 -0.106055 17.5667 0.130427 17.7355 0.5865L18.2251 1.97161C18.7822 1.93783 19.3563 1.97161 19.9134 2.07296L20.5549 0.755416C20.7744 0.316235 21.2978 0.130427 21.7367 0.333126L23.9146 1.3804C24.1341 1.48175 24.286 1.66756 24.3704 1.88715C24.4548 2.10674 24.4548 2.34322 24.3704 2.56281L23.7289 3.89725C24.1678 4.28576 24.5561 4.72494 24.8938 5.21479L26.2951 4.72494C26.5145 4.64048 26.7509 4.64048 26.9704 4.72494C27.1898 4.82629 27.3587 5.01209 27.4262 5.23168L28.2197 7.49516C28.321 7.71475 28.321 7.96812 28.2197 8.18771C28.1184 8.39041 27.9327 8.55933 27.7132 8.62689L26.3119 9.11675C26.3457 9.67417 26.3119 10.2485 26.2106 10.8059L27.5444 11.4309C27.9833 11.6505 28.169 12.1741 27.9664 12.6302L26.9366 14.843C26.8353 15.0626 26.6496 15.2315 26.4132 15.2991C26.1938 15.3835 25.9574 15.3835 25.7379 15.2991L24.4211 14.6572C24.0159 15.0964 23.5769 15.4849 23.1042 15.8396L23.5769 17.2247C23.6613 17.4443 23.6613 17.6808 23.5769 17.9004C23.4756 18.12 23.2899 18.2889 23.0705 18.3564L20.7913 19.1503C20.6731 19.1841 20.5718 19.1841 20.4536 19.1672ZM19.2718 16.0592C19.6433 16.0592 19.9978 16.2957 20.116 16.6504L20.5887 18.0017L22.4458 17.3598L21.9731 16.0085C21.838 15.62 21.99 15.1977 22.3276 14.9781C22.8847 14.5896 23.3912 14.1335 23.8133 13.593C23.9821 13.3903 24.2522 13.3228 24.4886 13.441L26.008 14.1673L26.8691 12.4782L25.3496 11.7518C25.1133 11.6505 24.9782 11.3802 25.0457 11.1268C25.1977 10.4681 25.2483 9.77552 25.1977 9.09986C25.147 8.69446 25.4003 8.30595 25.7886 8.18771L27.1392 7.71475L26.4808 5.85667L25.1301 6.31275C24.7418 6.44788 24.3367 6.31275 24.1003 5.97491C23.7289 5.41749 23.273 4.91074 22.7328 4.48846C22.5302 4.31954 22.4627 4.04927 22.564 3.81279L23.3068 2.29255L21.5341 1.43108L20.7913 2.95132C20.6731 3.1878 20.4199 3.30604 20.1666 3.25537C19.5082 3.08645 18.816 3.03578 18.1407 3.10335C17.7355 3.13713 17.3641 2.88375 17.229 2.51214L16.7563 1.16081L14.8992 1.81959L15.3719 3.15402C15.507 3.54253 15.355 3.96482 15.0174 4.18441C14.4603 4.57291 13.9538 5.02899 13.5317 5.56952C13.3798 5.77222 13.0928 5.83978 12.8564 5.72154L11.337 4.9952L10.4928 6.68436L11.9954 7.4107C12.2317 7.52894 12.3499 7.79921 12.2993 8.05258C12.1473 8.71135 12.0967 9.38701 12.1473 10.0627C12.1811 10.4681 11.9447 10.8566 11.5564 10.9917L10.2227 11.4478L10.8642 13.3228L12.2149 12.8498C12.6032 12.7147 13.0083 12.8498 13.2447 13.1876C13.6161 13.7619 14.0888 14.2687 14.6291 14.6741C14.8317 14.843 14.8992 15.1302 14.781 15.3666L14.0551 16.87L15.8278 17.7315L16.5537 16.2112C16.6719 15.9747 16.9251 15.8565 17.1784 15.9072C17.8368 16.0761 18.529 16.1268 19.2043 16.0592H19.2718Z" fill="#E9511D"/>
<path d="M53.0963 14.4981C51.3405 14.346 49.7873 15.6298 49.6354 17.3865L48.8588 27.7748C47.9809 27.437 47.0017 27.6059 46.2926 28.2309L35.3526 37.9605C33.9513 39.126 33.0734 40.7983 32.9046 42.6225L32.3812 47.8083H32.1955C30.8787 47.8251 29.7813 48.8218 29.6462 50.1224L29.5112 51.5582C29.4774 51.8622 29.528 52.1494 29.6462 52.4197H26.5398C26.658 52.1494 26.7086 51.8622 26.6917 51.5582L26.5398 50.1224C26.4047 48.8218 25.3074 47.8251 24.0074 47.8083H23.6022L23.0788 42.6563C22.8931 40.832 21.9983 39.1598 20.5971 37.9942L9.96097 28.535L9.65708 28.2647C8.948 27.6397 7.93504 27.4539 7.05714 27.8086L6.28053 17.4203C6.22988 16.8629 6.01041 16.3055 5.67275 15.8325C4.62602 14.4136 2.63386 14.1096 1.21571 15.1399C0.472875 15.748 0.0339238 16.6264 0.000158362 17.5723L0.000158362 31.8964C-0.0167244 35.0213 1.31701 37.9942 3.64683 40.0719L8.05322 43.9739C9.01553 44.8353 9.74149 45.9502 10.1129 47.1833L10.3493 48.011C10.1298 48.1292 9.9272 48.2812 9.74149 48.467C9.23501 48.9738 8.98177 49.6832 9.03242 50.4096L9.11683 51.8453C9.13371 52.048 9.18436 52.2507 9.26877 52.4366H4.47408C4.40655 52.4197 4.33902 52.4197 4.28837 52.4366C3.98448 52.4872 3.78189 52.7744 3.83254 53.0784C3.88318 53.3825 4.17019 53.5852 4.47408 53.5345H51.6444C51.7119 53.5514 51.7795 53.5514 51.8301 53.5345C52.134 53.4838 52.3366 53.1967 52.286 52.8926C52.2353 52.5886 51.9483 52.3859 51.6444 52.4366H46.951C47.0185 52.2507 47.0861 52.0649 47.0861 51.8622V50.4265C47.103 49.565 46.9004 48.9907 46.377 48.4839C46.1913 48.2981 45.9887 48.1461 45.7692 48.0278L46.0056 47.2171C46.377 45.9671 47.0861 44.8353 48.0653 43.9739L52.3366 40.0381C54.6833 37.9774 56.017 34.9875 56.0002 31.8626V17.5217C55.9157 15.9338 54.6833 14.6501 53.0963 14.4981ZM8.81294 43.1124L4.40655 39.2104C2.31309 37.3355 1.11442 34.6666 1.11442 31.8626V17.5723C1.14818 16.9642 1.43519 16.3899 1.92479 16.0014C2.39751 15.6298 3.02217 15.4778 3.61306 15.6129C4.54161 15.7818 5.2338 16.5588 5.30133 17.4879L6.12859 28.4505C6.12859 28.4505 5.87535 28.6194 5.50393 29.6836C5.21692 30.562 5.57146 31.5248 6.26365 32.1498L12.6622 37.8929C12.7635 37.9942 12.8986 38.028 13.0336 38.028C13.1856 38.0111 13.3037 37.9436 13.405 37.8422C13.6076 37.6226 13.6076 37.2848 13.405 37.0652L6.95584 31.3221C6.6013 30.9842 6.39871 30.4775 6.51689 30.0045C6.58442 29.7512 6.63507 29.5991 7.07402 29.16C7.59738 28.6194 8.49217 28.6532 9.0493 29.16L20.0231 38.9064C21.188 39.8692 21.9308 41.2374 22.0996 42.7408L22.6061 47.8083L11.7168 47.6731C11.6999 47.6731 11.683 47.6731 11.6661 47.6731H11.4129L11.1934 46.8792C10.7713 45.4265 9.94408 44.1259 8.81294 43.1124ZM11.6155 48.788L23.9061 48.9062C24.6489 48.9231 25.2736 49.4974 25.358 50.2406L25.51 51.6764C25.5268 51.8622 25.4593 52.048 25.3411 52.2001C25.2061 52.3352 25.0204 52.4197 24.8346 52.4197H10.8895C10.535 52.4197 10.248 52.1494 10.2142 51.7947L10.1298 50.3589C10.1298 50.3251 10.1298 50.2744 10.1298 50.2406C10.1298 49.4298 10.8051 48.7711 11.6155 48.788ZM45.8874 50.3758V51.8116C45.8705 52.1663 45.5835 52.4366 45.229 52.4366H31.267C31.0813 52.4366 30.9124 52.3521 30.7774 52.217C30.6423 52.0818 30.5917 51.8791 30.6085 51.6933L30.7605 50.2575C30.8449 49.5143 31.4527 48.94 32.2124 48.9231L44.5874 48.8049C44.9251 48.8555 45.2459 49.0076 45.4822 49.2609C45.7692 49.5481 45.9212 49.9535 45.8874 50.3758ZM55.0041 31.9471C55.021 34.7511 53.8223 37.4368 51.7288 39.2949L47.3224 43.1969C46.1913 44.2104 45.364 45.511 44.942 46.9637L44.7225 47.69C44.6381 47.69 44.5537 47.6731 44.4693 47.6731L33.4955 47.8083L34.002 42.8252C34.1539 41.2881 34.9136 39.8861 36.1123 38.9064L46.7484 29.2613L47.0523 28.991C47.3056 28.7714 47.6432 28.6532 47.9809 28.6532C47.9809 28.6532 48.4536 28.6194 48.8756 29.0417C49.7535 29.9201 49.4665 31.0518 49.112 31.3896L42.7134 37.0652C42.6122 37.1666 42.5446 37.3186 42.5446 37.4537C42.5446 37.7578 42.781 38.0111 43.0849 38.028C43.2199 38.028 43.3381 37.9774 43.4394 37.8929L49.838 32.1498C50.4626 31.5248 50.7665 30.5957 50.4795 29.7512C50.1925 28.9066 49.973 28.7208 49.973 28.7208L50.834 17.5723C50.8678 17.1669 51.0198 16.7784 51.273 16.4406C51.9821 15.5284 53.2989 15.3764 54.2106 16.0859C54.7002 16.4575 54.9872 17.0318 55.0041 17.6399V31.9471V31.9471Z" fill="#1E1E24"/>
<path fill-rule="evenodd" clip-rule="evenodd" d="M46.0056 47.2171C46.377 45.9671 47.0861 44.8353 48.0653 43.9739L52.3366 40.0381C54.6833 37.9774 56.017 34.9875 56.0002 31.8626V17.5217C55.9157 15.9338 54.6833 14.6501 53.0963 14.4981C51.3405 14.346 49.7873 15.6298 49.6354 17.3865L48.8588 27.7748C48.5935 27.6728 48.319 27.617 48.0456 27.606C47.4138 27.5807 46.7874 27.7947 46.2926 28.2309L35.3526 37.9605C33.9513 39.126 33.0734 40.7982 32.9046 42.6225L32.3812 47.8083H32.1955C30.8787 47.8251 29.7813 48.8218 29.6462 50.1224L29.5112 51.5582C29.5098 51.5709 29.5085 51.5835 29.5074 51.5961C29.4817 51.8862 29.533 52.1607 29.6462 52.4197H26.5398C26.6531 52.1607 26.7043 51.8862 26.6935 51.5961C26.693 51.5835 26.6924 51.5709 26.6917 51.5582L26.5398 50.1224C26.4047 48.8218 25.3074 47.8251 24.0074 47.8083H23.6022L23.0788 42.6563C22.8931 40.832 21.9983 39.1598 20.5971 37.9942L9.65708 28.2647C9.1602 27.8267 8.51409 27.6044 7.86981 27.6327C7.59467 27.6447 7.31985 27.7025 7.05714 27.8086L6.28053 17.4203C6.22988 16.8629 6.01041 16.3055 5.67275 15.8325C4.62602 14.4136 2.63386 14.1096 1.21571 15.1399C0.472875 15.748 0.0339238 16.6264 0.000158362 17.5723L0.000158362 31.8964C-0.0167244 35.0213 1.31701 37.9942 3.64683 40.0719L8.05322 43.9739C9.01553 44.8353 9.74149 45.9502 10.1129 47.1833L10.3493 48.011C10.1298 48.1292 9.9272 48.2812 9.74149 48.467C9.23501 48.9738 8.98177 49.6832 9.03242 50.4096L9.11683 51.8453C9.13371 52.048 9.18436 52.2507 9.26877 52.4366H4.47408C4.40655 52.4197 4.33902 52.4197 4.28837 52.4366C3.98448 52.4872 3.78189 52.7744 3.83254 53.0784C3.88318 53.3825 4.17019 53.5852 4.47408 53.5345H51.6444C51.7119 53.5514 51.7795 53.5514 51.8301 53.5345C52.134 53.4838 52.3366 53.1967 52.286 52.8926C52.2353 52.5886 51.9483 52.3859 51.6444 52.4366H46.951C47.0185 52.2507 47.0861 52.0649 47.0861 51.8622V50.4265C47.103 49.565 46.9004 48.9907 46.377 48.4839C46.1913 48.2981 45.9887 48.1461 45.7692 48.0278L46.0056 47.2171ZM3.61306 15.6129C3.02217 15.4778 2.39751 15.6298 1.92479 16.0014C1.43519 16.3899 1.14818 16.9642 1.11442 17.5723V31.8626C1.11442 34.6666 2.31309 37.3355 4.40655 39.2104L8.81294 43.1124C9.94408 44.1259 10.7713 45.4265 11.1934 46.8792L11.4129 47.6731H11.7168L22.6061 47.8083L22.0996 42.7408C21.9308 41.2374 21.188 39.8692 20.0231 38.9064L9.0493 29.16C8.49217 28.6532 7.59738 28.6194 7.07402 29.16C6.63507 29.5991 6.58442 29.7512 6.51689 30.0045C6.39871 30.4775 6.6013 30.9842 6.95584 31.3221L13.405 37.0652C13.6076 37.2848 13.6076 37.6226 13.405 37.8422C13.3037 37.9436 13.1856 38.0111 13.0336 38.028C12.8986 38.028 12.7635 37.9942 12.6622 37.8929L6.26365 32.1498C5.57146 31.5248 5.21692 30.562 5.50393 29.6836C5.87535 28.6194 6.12859 28.4505 6.12859 28.4505L5.30133 17.4879C5.2338 16.5588 4.54161 15.7818 3.61306 15.6129ZM11.6155 48.788C10.8051 48.7711 10.1298 49.4298 10.1298 50.2406V50.3589L10.2142 51.7947C10.248 52.1494 10.535 52.4197 10.8895 52.4197H24.8346C25.0204 52.4197 25.2061 52.3352 25.3411 52.2001C25.4593 52.048 25.5268 51.8622 25.51 51.6764L25.358 50.2406C25.2736 49.4974 24.6489 48.9231 23.9061 48.9062L11.6155 48.788ZM44.4693 47.6731C44.5115 47.6731 44.5537 47.6773 44.5959 47.6816C44.6381 47.6858 44.6803 47.69 44.7225 47.69L44.942 46.9637C45.364 45.511 46.1913 44.2103 47.3224 43.1969L51.7288 39.2949C53.8223 37.4368 55.021 34.7511 55.0041 31.9471V17.6399C54.9872 17.0318 54.7002 16.4575 54.2106 16.0859C53.2989 15.3764 51.9821 15.5284 51.273 16.4406C51.0198 16.7784 50.8678 17.1669 50.834 17.5723L49.973 28.7208C49.973 28.7208 50.1925 28.9066 50.4795 29.7512C50.7665 30.5957 50.4626 31.5248 49.838 32.1498L43.4394 37.8929C43.3381 37.9774 43.2199 38.028 43.0849 38.028C42.781 38.0111 42.5446 37.7578 42.5446 37.4537C42.5446 37.3186 42.6122 37.1666 42.7134 37.0652L49.112 31.3896C49.4665 31.0518 49.7535 29.9201 48.8756 29.0417C48.4536 28.6194 47.9809 28.6532 47.9809 28.6532C47.6432 28.6532 47.3056 28.7714 47.0523 28.991L46.7484 29.2613L36.1123 38.9064C34.9136 39.8861 34.1539 41.2881 34.002 42.8252L33.4955 47.8083L44.4693 47.6731ZM45.8874 50.3758C45.9212 49.9535 45.7692 49.5481 45.4822 49.2609C45.2459 49.0076 44.9251 48.8555 44.5874 48.8049L32.2124 48.9231C31.4527 48.94 30.8449 49.5143 30.7605 50.2575L30.6085 51.6933C30.5917 51.8791 30.6423 52.0818 30.7774 52.217C30.9124 52.3521 31.0813 52.4366 31.267 52.4366H45.229C45.5835 52.4366 45.8705 52.1663 45.8874 51.8116V50.3758Z" fill="#1E1E24"/>
<path d="M35.0544 15.992C32.7752 16.0089 30.935 14.1677 30.9181 11.8873C30.9012 9.60697 32.7414 7.76579 35.0206 7.74889C37.2998 7.732 39.14 9.57318 39.1569 11.8535C39.1569 11.8704 39.1569 11.8704 39.1569 11.8873C39.14 14.1508 37.3166 15.9751 35.0544 15.992ZM35.0544 8.82996C33.383 8.82996 32.0155 10.1982 32.0155 11.8704C32.0155 13.5427 33.383 14.9109 35.0544 14.9109C36.7257 14.9109 38.0932 13.5427 38.0932 11.8704C38.0932 10.1813 36.7257 8.82996 35.0544 8.82996Z" fill="#E9511D"/>
<path d="M42.6922 26.5659H27.3796C27.0757 26.5659 26.8394 26.3294 26.8394 26.0254V20.8397C26.8394 18.4073 28.8146 16.431 31.2457 16.4141H31.499C31.9717 16.4141 32.4107 16.5999 32.7145 16.9546C33.2886 17.6471 34.1496 18.0357 35.0444 18.0357C35.9391 18.0357 36.7833 17.6471 37.3573 16.9546C37.6781 16.6168 38.117 16.4141 38.5897 16.4141H38.8261C41.2572 16.431 43.2325 18.4073 43.2325 20.8397V26.0254C43.2325 26.3294 42.9961 26.5659 42.6922 26.5659ZM27.9199 25.5017H42.1182V20.8397C42.1182 18.9816 40.5988 17.4613 38.7417 17.4613H38.5053C38.3534 17.4613 38.2014 17.512 38.1001 17.6303C37.3235 18.5424 36.1755 19.0829 34.9599 19.0829C33.8119 19.0491 32.7314 18.5424 31.9886 17.664C31.8873 17.5458 31.7353 17.4951 31.5834 17.4951H31.3302C29.4731 17.4951 27.9536 19.0154 27.9536 20.8734L27.9199 25.5017Z" fill="#E9511D"/>
</svg>
