<svg width="56" height="59" viewBox="0 0 56 59" fill="none" xmlns="http://www.w3.org/2000/svg">
<path fill-rule="evenodd" clip-rule="evenodd" d="M3.54443 31.8987V25.2827H10.1605V31.8987H3.54443ZM9.21532 30.9536V26.2279H4.48958V30.9536H9.21532Z" fill="#E9511D"/>
<path fill-rule="evenodd" clip-rule="evenodd" d="M3.54443 42.2955V35.6794H10.1605V42.2955H3.54443ZM9.21532 41.3503V36.6246H4.48958V41.3503H9.21532Z" fill="#E9511D"/>
<path fill-rule="evenodd" clip-rule="evenodd" d="M10.1605 53.6373H3.54443V47.0212H10.1605V53.6373ZM9.21532 47.9664H4.48958V52.6921H9.21532V47.9664Z" fill="#E9511D"/>
<path fill-rule="evenodd" clip-rule="evenodd" d="M16.3037 12.5232H38.0421V19.1392H22.4271V16.2808H35.0871V15.3816H19.2399V16.2856L21.502 16.3086V19.1392H16.3037V12.5232ZM17.2489 13.4683V18.1941H20.5569V17.2442L18.2948 17.2212V14.4365H36.0323V17.2259H23.3723V18.1941H37.097V13.4683H17.2489Z" fill="#E9511D"/>
<path fill-rule="evenodd" clip-rule="evenodd" d="M16.3037 23.865H31.8624V27.0355H19.2399V28.2356H35.0871V27.0355H32.9083V23.865H38.0421V31.4262H16.3037V23.865ZM17.2489 24.8101V30.481H37.097V24.8101H33.8534V26.0904H36.0323V29.1807H18.2948V26.0904H30.9172V24.8101H17.2489Z" fill="#E9511D"/>
<path fill-rule="evenodd" clip-rule="evenodd" d="M16.3037 35.2068H38.0421V42.768H22.4835V39.6437H35.0871V38.3507H19.2399V39.6437H21.4376V42.768H16.3037V35.2068ZM17.2489 36.1519V41.8228H20.4924V40.5888H18.2948V37.4056H36.0323V40.5888H23.4286V41.8228H37.097V36.1519H17.2489Z" fill="#E9511D"/>
<path d="M3.54395 25.2827H10.16V31.8987H3.54395V25.2827Z" fill="white"/>
<path fill-rule="evenodd" clip-rule="evenodd" d="M9.21483 26.2279H4.48909V30.9536H9.21483V26.2279ZM3.54395 25.2827V31.8987H10.16V25.2827H3.54395Z" fill="#1E1E24"/>
<path d="M3.54395 35.6794H10.16V42.2955H3.54395V35.6794Z" fill="white"/>
<path fill-rule="evenodd" clip-rule="evenodd" d="M9.21483 36.6246H4.48909V41.3503H9.21483V36.6246ZM3.54395 35.6794V42.2955H10.16V35.6794H3.54395Z" fill="#1E1E24"/>
<path d="M3.54395 47.0212H10.16V53.6373H3.54395V47.0212Z" fill="white"/>
<path fill-rule="evenodd" clip-rule="evenodd" d="M9.21483 47.9664H4.48909V52.6921H9.21483V47.9664ZM3.54395 47.0212V53.6373H10.16V47.0212H3.54395Z" fill="#1E1E24"/>
<path fill-rule="evenodd" clip-rule="evenodd" d="M12.7595 1.65401C12.7595 0.740524 13.5 0 14.4135 0L39.9325 0C40.846 0 41.5865 0.740525 41.5865 1.65401V56.7089H48.2025V53.3619C45.0127 53.0093 42.5316 50.3049 42.5316 47.0211C42.5316 43.4977 45.388 40.6414 48.9114 40.6414C52.4348 40.6414 55.2911 43.4977 55.2911 47.0211C55.2911 50.3049 52.8101 53.0093 49.6203 53.3619V56.7089H56V58.1266H1.65401C0.740526 58.1266 0 57.3861 0 56.4726L0 19.1428C0 18.6187 0.24837 18.1256 0.669497 17.8137L12.7595 8.85812V1.65401ZM12.7595 10.6224L1.58078 18.903H10.1603V20.3207H1.41772V56.4726C1.41772 56.6031 1.52351 56.7089 1.65401 56.7089H17.0127V46.3122H37.3333V56.7089H40.1688V9.92405H16.7764V8.50633H40.1688V1.65401C40.1688 1.52351 40.063 1.41772 39.9325 1.41772H14.4135C14.283 1.41772 14.1772 1.52351 14.1772 1.65401V47.0211H12.7595V10.6224ZM35.9156 56.7089V47.73H18.4304V56.7089H35.9156ZM20.557 5.19831H18.6667V3.78059H20.557V5.19831ZM24.3376 5.19831H22.4473V3.78059H24.3376V5.19831ZM28.1181 5.19831H26.2278V3.78059H28.1181V5.19831ZM31.8987 5.19831H30.0084V3.78059H31.8987V5.19831ZM35.6793 5.19831H33.789V3.78059H35.6793V5.19831ZM48.9114 42.0591C46.1709 42.0591 43.9494 44.2806 43.9494 47.0211C43.9494 49.7615 46.1709 51.9831 48.9114 51.9831C51.6518 51.9831 53.8734 49.7615 53.8734 47.0211C53.8734 44.2806 51.6518 42.0591 48.9114 42.0591ZM12.7595 51.7468V49.8565H14.1772V51.7468H12.7595ZM12.7595 56.4726V54.1097H14.1772V56.4726H12.7595Z" fill="#1E1E24"/>
</svg>
