<svg width="16" height="16" viewBox="0 0 16 16" fill="none" xmlns="http://www.w3.org/2000/svg">
<path d="M7.29508 2C6.46121 2 5.66382 2.16667 4.90292 2.5C4.18371 2.8125 3.54788 3.25521 2.99544 3.82812C2.443 4.40104 2.02086 5.0625 1.729 5.8125L2.65147 6.1875C2.89121 5.5625 3.24039 5.01042 3.69902 4.53125C4.15765 4.05208 4.68924 3.67708 5.29379 3.40625C5.92962 3.13542 6.59672 3 7.29508 3C8.08726 3 8.83774 3.18229 9.54653 3.54688C10.2345 3.90104 10.8078 4.38542 11.2664 5H9.29637V6H12.7986V2.5H11.798V4.04688C11.2351 3.41146 10.5732 2.91146 9.81232 2.54688C9.00972 2.18229 8.17064 2 7.29508 2ZM11.9387 9.8125C11.699 10.4375 11.3498 10.9896 10.8911 11.4688C10.4325 11.9479 9.90092 12.3229 9.29637 12.5938C8.66054 12.8646 7.99345 13 7.29508 13C6.49248 13 5.73679 12.8177 5.028 12.4531C4.35048 12.099 3.77719 11.6146 3.30814 11H5.29379V10H1.79154V13.5H2.79219V11.9531C3.35505 12.5885 4.01693 13.0833 4.77784 13.4375C5.57001 13.8125 6.40909 14 7.29508 14C8.12895 14 8.92634 13.8333 9.68724 13.5C10.4065 13.1875 11.0423 12.7448 11.5947 12.1719C12.1472 11.599 12.5693 10.9375 12.8612 10.1875L11.9387 9.8125Z" fill="#444444"/>
</svg>
