<svg width="16" height="16" viewBox="0 0 16 16" fill="none" xmlns="http://www.w3.org/2000/svg">
<path d="M8.18701 2C4.8643 2 2.18701 4.67728 2.18701 8C2.18701 11.3227 4.8643 14 8.18701 14C11.5097 14 14.187 11.3227 14.187 8C14.187 7.35457 14.1005 6.71094 13.8697 6.11058L13.1197 6.84615C13.2117 7.21574 13.2639 7.58534 13.2639 8C13.2639 10.8161 11.0031 13.0769 8.18701 13.0769C5.37091 13.0769 3.11009 10.8161 3.11009 8C3.11009 5.18389 5.37091 2.92308 8.18701 2.92308C9.57163 2.92308 10.8156 3.47476 11.6918 4.35096L12.3409 3.70192C11.279 2.64002 9.8024 2 8.18701 2ZM13.3937 3.97596L8.18701 9.18269L6.21105 7.20673L5.54759 7.87019L7.85528 10.1779L8.18701 10.4952L8.51874 10.1779L14.0572 4.63942L13.3937 3.97596Z" fill="#444444"/>
</svg>
