<svg width="16" height="16" viewBox="0 0 16 16" fill="none" xmlns="http://www.w3.org/2000/svg">
<path d="M11.5315 2C11.2639 2 11.0067 2.05141 10.7597 2.15424C10.5128 2.25707 10.2916 2.40617 10.0961 2.60154L2.28644 10.4062L1.71538 13.2751L1.56104 14L2.28644 13.8458L5.15718 13.2751L12.9668 5.47044C13.2343 5.20308 13.4093 4.89974 13.4916 4.56041C13.5842 4.2108 13.5842 3.86632 13.4916 3.52699C13.4093 3.17738 13.2343 2.86889 12.9668 2.60154C12.7713 2.40617 12.5501 2.25707 12.3032 2.15424C12.0562 2.05141 11.799 2 11.5315 2ZM11.5315 2.94087C11.7887 2.94087 12.0356 3.05913 12.2723 3.29563C12.5089 3.53213 12.6273 3.77892 12.6273 4.03599C12.6273 4.29306 12.5089 4.53985 12.2723 4.77635L11.9173 5.11568L10.4511 3.65039L10.7906 3.29563C11.0273 3.05913 11.2742 2.94087 11.5315 2.94087ZM9.75653 4.34447L11.2228 5.80977L5.24978 11.7789C4.92052 11.1311 4.43177 10.6427 3.78354 10.3136L9.75653 4.34447ZM3.15075 11.1157C3.44914 11.2391 3.70637 11.4139 3.92245 11.6401C4.14882 11.856 4.32374 12.1131 4.44721 12.4113L2.82663 12.7352L3.15075 11.1157Z" fill="#444444"/>
</svg>
