<svg width="16" height="16" viewBox="0 0 16 16" fill="none" xmlns="http://www.w3.org/2000/svg">
<path d="M6.52194 2C6.23008 2 5.99035 2.09375 5.80272 2.28125C5.6151 2.46875 5.52129 2.70833 5.52129 3V3.5H2.01904V4.5H2.56627L3.56691 14H11.4782L12.4789 4.5H13.0261V3.5H9.52387V3C9.52387 2.70833 9.43006 2.46875 9.24244 2.28125C9.05481 2.09375 8.81508 2 8.52322 2H6.52194ZM6.52194 3H8.52322V3.5H6.52194V3ZM3.58255 4.5H11.4626L10.5714 13H4.47375L3.58255 4.5ZM5.52129 6V11.5H6.52194V6H5.52129ZM7.02226 6V11.5H8.0229V6H7.02226ZM8.52322 6V11.5H9.52387V6H8.52322Z" fill="#444444"/>
</svg>
