<svg width="16" height="16" viewBox="0 0 16 16" fill="none" xmlns="http://www.w3.org/2000/svg">
<path d="M8.01904 2C4.71045 2 2.01904 4.69141 2.01904 8C2.01904 11.3086 4.71045 14 8.01904 14C11.3276 14 14.019 11.3086 14.019 8C14.019 4.69141 11.3276 2 8.01904 2ZM8.01904 3C10.7866 3 13.019 5.23242 13.019 8C13.019 10.7676 10.7866 13 8.01904 13C5.25147 13 3.01904 10.7676 3.01904 8C3.01904 5.23242 5.25147 3 8.01904 3ZM6.01904 4.5625V11.4375L6.76904 11L11.269 8.4375L12.019 8L11.269 7.5625L6.76904 5L6.01904 4.5625ZM7.01904 6.28125L10.0034 8L7.01904 9.71875V6.28125Z" fill="#444444"/>
</svg>
