<svg width="16" height="16" viewBox="0 0 16 16" fill="none" xmlns="http://www.w3.org/2000/svg">
<path d="M1.729 2V13.1429H8.58615V12.2857H2.58615V2.85714H6.87186V5.42857H9.44329V6.28571H10.3004V4.8284L10.1715 4.70033L7.6001 2.12891L7.47203 2H1.729ZM7.729 3.45731L8.84312 4.57143H7.729V3.45731ZM3.44329 6.28571V7.14286H8.58615V6.28571H3.44329ZM10.729 7.14286V8C10.0004 8.12857 9.44329 8.72857 9.44329 9.5C9.44329 10.3571 10.0861 11 10.9433 11H11.3719C11.7147 11 12.0147 11.3 12.0147 11.6429C12.0147 11.9857 11.7147 12.2857 11.3719 12.2857H9.87186V13.1429H10.729V14H11.5861V13.1429C12.3147 13.0143 12.8719 12.4143 12.8719 11.6429C12.8719 10.7857 12.229 10.1429 11.3719 10.1429H10.9433C10.6004 10.1429 10.3004 9.84286 10.3004 9.5C10.3004 9.15714 10.6004 8.85714 10.9433 8.85714H12.4433V8H11.5861V7.14286H10.729ZM3.44329 8.42857V9.28571H6.44329V8.42857H3.44329ZM7.30043 8.42857V9.28571H8.58615V8.42857H7.30043ZM3.44329 10.1429V11H6.44329V10.1429H3.44329ZM7.30043 10.1429V11H8.58615V10.1429H7.30043Z" fill="#444444"/>
</svg>
