<svg width="16" height="16" viewBox="0 0 16 16" fill="none" xmlns="http://www.w3.org/2000/svg">
<path d="M8.04675 2C6.92467 2 6.16883 2.44221 5.49091 2.81039C4.81298 3.17857 4.1974 3.4961 3.05974 3.4961H2.56104V3.99481C2.56104 7.84416 3.86233 10.3494 5.17922 11.8649C6.4961 13.3805 7.85974 13.9377 7.85974 13.9377L8.04675 14L8.23376 13.9377C8.23376 13.9377 9.5974 13.3922 10.9143 11.8805C12.2312 10.3688 13.5325 7.85779 13.5325 3.99481V3.4961H13.0338C11.9019 3.4961 11.2805 3.17857 10.6026 2.81039C9.92467 2.44221 9.16883 2 8.04675 2ZM8.04675 2.9974C8.91948 2.9974 9.42013 3.30325 10.1195 3.68312C10.7097 4.00455 11.4929 4.31234 12.5039 4.41558C12.4084 7.78961 11.2922 9.93442 10.1662 11.226C9.14545 12.3968 8.28831 12.7864 8.04675 12.8935C7.80324 12.7844 6.94805 12.3851 5.92727 11.2104C4.8013 9.91494 3.68506 7.77403 3.58961 4.41558C4.60454 4.31234 5.38376 4.00455 5.97402 3.68312C6.67337 3.30325 7.17402 2.9974 8.04675 2.9974Z" fill="#444444"/>
</svg>
