<svg width="16" height="16" viewBox="0 0 16 16" fill="none" xmlns="http://www.w3.org/2000/svg">
<path d="M8.97916 2C8.13348 2 7.35097 2.21385 6.63165 2.64156C5.92205 3.04982 5.36312 3.60875 4.95486 4.31835C4.52716 5.03767 4.31331 5.82017 4.31331 6.66586C4.31331 7.21993 4.40565 7.7497 4.59034 8.25516C4.77503 8.75091 5.03263 9.20292 5.36312 9.61118L1.64502 13.3293L2.31574 14L6.03384 10.2819C6.4421 10.6124 6.89411 10.87 7.38986 11.0547C7.89532 11.2394 8.42509 11.3317 8.97916 11.3317C9.82485 11.3317 10.6074 11.1179 11.3267 10.6902C12.0363 10.2819 12.5952 9.72296 13.0035 9.01337C13.4312 8.29405 13.645 7.51154 13.645 6.66586C13.645 5.82017 13.4312 5.03767 13.0035 4.31835C12.5952 3.60875 12.0363 3.04982 11.3267 2.64156C10.6074 2.21385 9.82485 2 8.97916 2ZM8.97916 2.93317C9.6596 2.93317 10.2817 3.10328 10.8455 3.4435C11.419 3.774 11.871 4.226 12.2015 4.79951C12.5417 5.36331 12.7118 5.98542 12.7118 6.66586C12.7118 7.34629 12.5417 7.97327 12.2015 8.54678C11.871 9.11057 11.419 9.56258 10.8455 9.90279C10.2817 10.2333 9.6596 10.3985 8.97916 10.3985C8.29873 10.3985 7.67175 10.2333 7.09824 9.90279C6.53445 9.56258 6.08244 9.11057 5.74222 8.54678C5.41173 7.97327 5.24648 7.34629 5.24648 6.66586C5.24648 5.98542 5.41173 5.36331 5.74222 4.79951C6.08244 4.226 6.53445 3.774 7.09824 3.4435C7.67175 3.10328 8.29873 2.93317 8.97916 2.93317Z" fill="rgb(255, 255, 255)"/>
</svg>
