<svg width="16" height="16" viewBox="0 0 16 16" fill="none" xmlns="http://www.w3.org/2000/svg">
<path d="M1.729 2V14H13.729V2H1.729ZM2.81991 3.09091H12.6381V12.9091H2.81991V3.09091ZM9.98007 4.1147C9.56007 4.1147 9.13843 4.27452 8.82098 4.59197L4.31246 9.1005L4.29541 9.27095L4.03973 11.0788L3.92041 11.8118L4.65336 11.6925L6.46018 11.4368L6.63064 11.4197L11.1402 6.91122C11.773 6.27849 11.773 5.22577 11.1402 4.59304C10.8222 4.27504 10.4001 4.1147 9.98007 4.1147ZM9.98007 5.20561C10.1186 5.20561 10.2636 5.25047 10.3721 5.35902C10.5832 5.57011 10.5893 5.89193 10.3892 6.10902L10.3721 6.12607L6.11927 10.396L5.21586 10.5153L5.33518 9.61186L9.60507 5.35902C9.71361 5.25047 9.84207 5.20561 9.98007 5.20561Z" fill="#444444"/>
</svg>
