<svg width="16" height="16" viewBox="0 0 16 16" fill="none" xmlns="http://www.w3.org/2000/svg">
<path d="M8.47705 5C5.21738 5 2.70923 7.87169 2.70923 7.87169L2.47705 8.12831L2.70923 8.38493C2.70923 8.38493 4.99589 10.9924 8.03713 11.2322C8.18224 11.2505 8.32736 11.2566 8.47705 11.2566C8.62675 11.2566 8.77186 11.2505 8.91697 11.2322C11.9582 10.9924 14.2449 8.38493 14.2449 8.38493L14.4771 8.12831L14.2449 7.87169C14.2449 7.87169 11.7367 5 8.47705 5ZM8.47705 5.78208C9.33856 5.78208 10.1329 6.01731 10.8233 6.33198C11.0723 6.7444 11.2143 7.21945 11.2143 7.73727C11.2143 9.1502 10.1542 10.3111 8.78255 10.4623C8.77491 10.4639 8.76575 10.4608 8.75811 10.4623C8.66493 10.4669 8.57176 10.4745 8.47705 10.4745C8.37318 10.4745 8.27237 10.4684 8.17155 10.4623C6.79986 10.3111 5.73978 9.1502 5.73978 7.73727C5.73978 7.22709 5.87725 6.75204 6.1186 6.3442H6.10638C6.80292 6.02342 7.60638 5.78208 8.47705 5.78208ZM8.47705 6.56416C7.82939 6.56416 7.30393 7.08961 7.30393 7.73727C7.30393 8.38493 7.82939 8.91039 8.47705 8.91039C9.12471 8.91039 9.65017 8.38493 9.65017 7.73727C9.65017 7.08961 9.12471 6.56416 8.47705 6.56416ZM5.05546 6.93075C4.99436 7.19348 4.9577 7.45774 4.9577 7.73727C4.9577 8.42312 5.15322 9.06466 5.49538 9.60693C4.51015 9.03717 3.82583 8.35743 3.60129 8.12831C3.78917 7.93585 4.3131 7.42566 5.05546 6.93075ZM11.8986 6.93075C12.641 7.42566 13.1649 7.93585 13.3528 8.12831C13.1283 8.35743 12.444 9.03717 11.4587 9.60693C11.8009 9.06466 11.9964 8.42312 11.9964 7.73727C11.9964 7.45774 11.9597 7.19043 11.8986 6.93075Z" fill="#444444"/>
</svg>
