<svg width="16" height="16" viewBox="0 0 16 16" fill="none" xmlns="http://www.w3.org/2000/svg">
<path d="M8.10303 2C4.79443 2 2.10303 4.69141 2.10303 8C2.10303 11.3086 4.79443 14 8.10303 14C11.4116 14 14.103 11.3086 14.103 8C14.103 4.69141 11.4116 2 8.10303 2ZM8.10303 3C10.8706 3 13.103 5.23242 13.103 8C13.103 10.7676 10.8706 13 8.10303 13C5.33545 13 3.10303 10.7676 3.10303 8C3.10303 5.23242 5.33545 3 8.10303 3ZM8.10303 5C7.00342 5 6.10303 5.90039 6.10303 7H7.10303C7.10303 6.44141 7.54443 6 8.10303 6C8.66162 6 9.10303 6.44141 9.10303 7C9.10303 7.38281 8.85693 7.72266 8.49365 7.84375L8.29053 7.90625C7.88232 8.04102 7.60303 8.43164 7.60303 8.85938V9.5H8.60303V8.85938L8.80615 8.79688C9.57568 8.54102 10.103 7.81055 10.103 7C10.103 5.90039 9.20264 5 8.10303 5ZM7.60303 10V11H8.60303V10H7.60303Z" fill="rgb(255, 255, 255)"/>
</svg>
