<svg width="16" height="16" viewBox="0 0 16 16" fill="none" xmlns="http://www.w3.org/2000/svg">
<path d="M7.56104 2C4.25244 2 1.56104 4.68968 1.56104 7.99614C1.56104 11.3026 4.25244 13.9923 7.56104 13.9923C10.8696 13.9923 13.561 11.3026 13.561 7.99614C13.561 4.68968 10.8696 2 7.56104 2ZM7.56104 2.99936C10.3286 2.99936 12.561 5.23035 12.561 7.99614C12.561 10.7619 10.3286 12.9929 7.56104 12.9929C4.79346 12.9929 2.56104 10.7619 2.56104 7.99614C2.56104 5.23035 4.79346 2.99936 7.56104 2.99936ZM7.06104 4.99807V8.9955H8.06104V4.99807H7.06104ZM7.06104 9.99486V10.9942H8.06104V9.99486H7.06104Z" fill="#444444"/>
</svg>
