<svg width="16" height="16" viewBox="0 0 16 16" fill="none" xmlns="http://www.w3.org/2000/svg">
<path d="M4.73332 2V2.52174H2.64502V14H14.1307V2.52174H12.0424V2H10.9982V2.52174H5.77747V2H4.73332ZM3.68917 3.56522H4.73332V4.08696H5.77747V3.56522H10.9982V4.08696H12.0424V3.56522H13.0865V4.6087H3.68917V3.56522ZM3.68917 5.65217H13.0865V12.9565H3.68917V5.65217ZM6.82162 6.69565V7.73913H7.86577V6.69565H6.82162ZM8.90991 6.69565V7.73913H9.95406V6.69565H8.90991ZM10.9982 6.69565V7.73913H12.0424V6.69565H10.9982ZM4.73332 8.78261V9.82609H5.77747V8.78261H4.73332ZM6.82162 8.78261V9.82609H7.86577V8.78261H6.82162ZM8.90991 8.78261V9.82609H9.95406V8.78261H8.90991ZM10.9982 8.78261V9.82609H12.0424V8.78261H10.9982ZM4.73332 10.8696V11.913H5.77747V10.8696H4.73332ZM6.82162 10.8696V11.913H7.86577V10.8696H6.82162ZM8.90991 10.8696V11.913H9.95406V10.8696H8.90991Z" fill="#444444"/>
</svg>
