<svg width="16" height="16" viewBox="0 0 16 16" fill="none" xmlns="http://www.w3.org/2000/svg">
<path d="M7.56104 3C6.42599 3 5.43994 3.53069 4.73514 4.3125C4.67655 4.3058 4.62465 4.28571 4.56104 4.28571C3.61851 4.28571 2.84675 5.05748 2.84675 6C2.10512 6.45201 1.56104 7.2154 1.56104 8.14286C1.56104 9.55748 2.71784 10.7143 4.13246 10.7143H6.27532V9.85714H4.13246C3.18157 9.85714 2.41818 9.09375 2.41818 8.14286C2.41818 7.43136 2.8501 6.82366 3.46282 6.5625L3.75746 6.44196L3.71729 6.12054C3.70891 6.05022 3.70389 6.01005 3.70389 6C3.70389 5.52121 4.08224 5.14286 4.56104 5.14286C4.6213 5.14286 4.68827 5.15123 4.76193 5.16964L5.02979 5.23661L5.1905 5.02232C5.73961 4.31752 6.59675 3.85714 7.56104 3.85714C8.96561 3.85714 10.1375 4.8231 10.4673 6.12054L10.5476 6.45536L10.9092 6.44196C10.9997 6.43694 11.0197 6.42857 10.9896 6.42857C11.9405 6.42857 12.7039 7.19196 12.7039 8.14286C12.7039 9.09375 11.9405 9.85714 10.9896 9.85714H8.84675V10.7143H10.9896C12.4042 10.7143 13.561 9.55748 13.561 8.14286C13.561 6.79018 12.4946 5.70703 11.1637 5.61161C10.6397 4.10324 9.24351 3 7.56104 3ZM7.13246 8.14286V11.5714H5.84675L7.56104 13.2857L9.27532 11.5714H7.98961V8.14286H7.13246Z" fill="#444444"/>
</svg>
