<svg width="16" height="16" viewBox="0 0 16 16" fill="none" xmlns="http://www.w3.org/2000/svg">
<path d="M7.64502 2C4.33673 2 1.64502 4.69171 1.64502 8C1.64502 11.3083 4.33673 14 7.64502 14C10.9533 14 13.645 11.3083 13.645 8C13.645 4.69171 10.9533 2 7.64502 2ZM7.64502 2.92308C10.4539 2.92308 12.7219 5.19111 12.7219 8C12.7219 10.8089 10.4539 13.0769 7.64502 13.0769C4.83613 13.0769 2.5681 10.8089 2.5681 8C2.5681 5.19111 4.83613 2.92308 7.64502 2.92308ZM7.18348 5.23077V6.15385H8.10656V5.23077H7.18348ZM7.18348 7.07692V10.7692H8.10656V7.07692H7.18348Z" fill="#444444"/>
</svg>
