<svg width="16" height="16" viewBox="0 0 16 16" fill="none" xmlns="http://www.w3.org/2000/svg">
<path d="M8.21981 2C7.8821 2 7.59441 2.11875 7.35676 2.35625C7.13162 2.58125 7.01904 2.8625 7.01904 3.2C7.01904 3.5375 7.13162 3.825 7.35676 4.0625C7.59441 4.2875 7.8821 4.4 8.21981 4.4C8.55753 4.4 8.83896 4.2875 9.06411 4.0625C9.30176 3.825 9.42059 3.5375 9.42059 3.2C9.42059 2.8625 9.30176 2.58125 9.06411 2.35625C8.83896 2.11875 8.55753 2 8.21981 2ZM8.21981 6.8C7.8821 6.8 7.59441 6.91875 7.35676 7.15625C7.13162 7.38125 7.01904 7.6625 7.01904 8C7.01904 8.3375 7.13162 8.625 7.35676 8.8625C7.59441 9.0875 7.8821 9.2 8.21981 9.2C8.55753 9.2 8.83896 9.0875 9.06411 8.8625C9.30176 8.625 9.42059 8.3375 9.42059 8C9.42059 7.6625 9.30176 7.38125 9.06411 7.15625C8.83896 6.91875 8.55753 6.8 8.21981 6.8ZM8.21981 11.6C7.8821 11.6 7.59441 11.7188 7.35676 11.9563C7.13162 12.1813 7.01904 12.4625 7.01904 12.8C7.01904 13.1375 7.13162 13.425 7.35676 13.6625C7.59441 13.8875 7.8821 14 8.21981 14C8.55753 14 8.83896 13.8875 9.06411 13.6625C9.30176 13.425 9.42059 13.1375 9.42059 12.8C9.42059 12.4625 9.30176 12.1813 9.06411 11.9563C8.83896 11.7188 8.55753 11.6 8.21981 11.6Z" fill="#444444"/>
</svg>
