<svg width="16" height="16" viewBox="0 0 16 16" fill="none" xmlns="http://www.w3.org/2000/svg">
<path d="M8 1.5C5.243 1.5 3 3.743 3 6.5C3 9.257 5.243 11.5 8 11.5C10.757 11.5 13 9.257 13 6.5C13 3.743 10.757 1.5 8 1.5ZM8 2.5C10.2055 2.5 12 4.2945 12 6.5C12 8.7055 10.2055 10.5 8 10.5C5.7945 10.5 4 8.7055 4 6.5C4 4.2945 5.7945 2.5 8 2.5ZM7.5 3.5V4.09473C7.4275 4.12098 7.35703 4.15306 7.29004 4.18945C7.22305 4.22585 7.1591 4.26691 7.09863 4.3125C7.03816 4.35809 6.98164 4.4081 6.92871 4.46191C6.82285 4.56955 6.7327 4.69232 6.66309 4.82715C6.62828 4.89456 6.59844 4.96531 6.57422 5.03809C6.52578 5.18363 6.5 5.33875 6.5 5.5C6.5 5.6025 6.51105 5.70273 6.53125 5.7998C6.57164 5.99395 6.65027 6.1752 6.75879 6.33496C6.81305 6.41484 6.87426 6.48949 6.94238 6.55762C7.07863 6.69387 7.24086 6.8043 7.41992 6.88086C7.59898 6.95742 7.795 7 8 7C8.07125 7 8.13801 7.01348 8.19824 7.03809C8.25848 7.0627 8.31176 7.09887 8.35645 7.14355C8.40113 7.18824 8.4373 7.24152 8.46191 7.30176C8.48652 7.36199 8.5 7.42875 8.5 7.5C8.5 7.71375 8.37895 7.88809 8.19824 7.96191C8.13801 7.98652 8.07125 8 8 8C7.92875 8 7.86199 7.98652 7.80176 7.96191C7.74152 7.9373 7.68824 7.90113 7.64355 7.85645C7.55418 7.76707 7.5 7.6425 7.5 7.5H6.5C6.5 7.58063 6.50691 7.66013 6.51953 7.7373C6.53215 7.81448 6.55 7.88914 6.57422 7.96191C6.59844 8.03469 6.62828 8.10544 6.66309 8.17285C6.69789 8.24026 6.73785 8.30414 6.78223 8.36523C6.8266 8.42633 6.87578 8.48427 6.92871 8.53809C6.98164 8.5919 7.03816 8.64191 7.09863 8.6875C7.1591 8.73309 7.22305 8.77415 7.29004 8.81055C7.35703 8.84694 7.4275 8.87902 7.5 8.90527V9.5H8.5V8.90527C9.0075 8.72152 9.39215 8.27755 9.48047 7.7373C9.49309 7.66013 9.5 7.58063 9.5 7.5C9.5 7.3975 9.48895 7.29727 9.46875 7.2002C9.44855 7.10312 9.41914 7.00945 9.38086 6.91992C9.34258 6.83039 9.29547 6.74492 9.24121 6.66504C9.18695 6.58516 9.12574 6.51051 9.05762 6.44238C8.98949 6.37426 8.91484 6.31305 8.83496 6.25879C8.75508 6.20453 8.66961 6.15742 8.58008 6.11914C8.49055 6.08086 8.39688 6.05145 8.2998 6.03125C8.20273 6.01105 8.1025 6 8 6C7.92875 6 7.86199 5.98652 7.80176 5.96191C7.74152 5.9373 7.68824 5.90113 7.64355 5.85645C7.59887 5.81176 7.5627 5.75848 7.53809 5.69824C7.51348 5.63801 7.5 5.57125 7.5 5.5C7.5 5.42875 7.51348 5.36199 7.53809 5.30176C7.5627 5.24152 7.59887 5.18824 7.64355 5.14355C7.68824 5.09887 7.74152 5.0627 7.80176 5.03809C7.86199 5.01348 7.92875 5 8 5C8.285 5 8.5 5.215 8.5 5.5H9.5C9.5 5.41937 9.49309 5.33987 9.48047 5.2627C9.46785 5.18552 9.45 5.11086 9.42578 5.03809C9.28047 4.60145 8.935 4.25223 8.5 4.09473V3.5H7.5ZM1 10.5V14.5H2V11.5H4.69043C4.26493 11.2175 3.88054 10.879 3.54004 10.5H1ZM12.46 10.5C12.1195 10.879 11.7351 11.2175 11.3096 11.5H14V14.5H15V10.5H12.46ZM3 12.5V13.5H13V12.5H3Z" fill="#444444"/>
</svg>
