<svg width="16" height="16" viewBox="0 0 16 16" fill="none" xmlns="http://www.w3.org/2000/svg">
<path d="M6.5 2V3H4.5C3.67773 3 3 3.67773 3 4.5V6.5H2V9.5H5V6.5H4V4.5C4 4.2168 4.2168 4 4.5 4H6.5V5H9.5V2H6.5ZM7.5 3H8.5V4H7.5V3ZM10 3V4H11.5C11.7832 4 12 4.2168 12 4.5V6.5H11V9.5H14V6.5H13V4.5C13 3.67773 12.3223 3 11.5 3H10ZM3 7.5H4V8.5H3V7.5ZM12 7.5H13V8.5H12V7.5ZM3 10V11.5C3 12.3223 3.67773 13 4.5 13H6.5V14H9.5V11H6.5V12H4.5C4.2168 12 4 11.7832 4 11.5V10H3ZM12 10V11.5C12 11.7832 11.7832 12 11.5 12H10V13H11.5C12.3223 13 13 12.3223 13 11.5V10H12ZM7.5 12H8.5V13H7.5V12Z" fill="#444444"/>
</svg>
