<svg width="16" height="16" viewBox="0 0 16 16" fill="none" xmlns="http://www.w3.org/2000/svg">
<path d="M11.4463 1.99998C11.3701 2.00193 11.29 2.0117 11.2119 2.03123L3.08691 4.17185C2.43066 4.34373 1.96191 4.94529 1.96191 5.62498V12.5C1.96191 13.3222 2.63965 14 3.46191 14H12.4619C13.2842 14 13.9619 13.3222 13.9619 12.5V5.99998C13.9619 5.17771 13.2842 4.49998 12.4619 4.49998H5.77441L11.4619 2.99998V3.99998H12.4619V2.99998C12.4619 2.43748 11.9834 1.99217 11.4463 1.99998ZM3.46191 5.49998H12.4619C12.7451 5.49998 12.9619 5.71678 12.9619 5.99998V12.5C12.9619 12.7832 12.7451 13 12.4619 13H3.46191C3.17871 13 2.96191 12.7832 2.96191 12.5V5.99998C2.96191 5.71678 3.17871 5.49998 3.46191 5.49998ZM11.2119 8.49998C10.7979 8.49998 10.4619 8.83592 10.4619 9.24998C10.4619 9.66404 10.7979 9.99998 11.2119 9.99998C11.626 9.99998 11.9619 9.66404 11.9619 9.24998C11.9619 8.83592 11.626 8.49998 11.2119 8.49998Z" fill="#444444"/>
</svg>
