<svg width="16" height="16" viewBox="0 0 16 16" fill="none" xmlns="http://www.w3.org/2000/svg">
<path d="M8.10303 4C6.96798 4 5.98193 4.53069 5.27713 5.3125C5.21854 5.3058 5.16664 5.28571 5.10303 5.28571C4.16051 5.28571 3.38874 6.05748 3.38874 7C2.64711 7.45201 2.10303 8.2154 2.10303 9.14286C2.10303 10.5575 3.25984 11.7143 4.67446 11.7143H6.81731V10.8571H4.67446C3.72356 10.8571 2.96017 10.0937 2.96017 9.14286C2.96017 8.43136 3.39209 7.82366 4.00481 7.5625L4.29946 7.44196L4.25928 7.12054C4.25091 7.05022 4.24588 7.01004 4.24588 7C4.24588 6.52121 4.62423 6.14286 5.10303 6.14286C5.1633 6.14286 5.23026 6.15123 5.30392 6.16964L5.57178 6.23661L5.73249 6.02232C6.2816 5.31752 7.13874 4.85714 8.10303 4.85714C9.5076 4.85714 10.6795 5.8231 11.0093 7.12054L11.0896 7.45536L11.4512 7.44196C11.5416 7.43694 11.5617 7.42857 11.5316 7.42857C12.4825 7.42857 13.2459 8.19196 13.2459 9.14286C13.2459 10.0937 12.4825 10.8571 11.5316 10.8571H9.38874V11.7143H11.5316C12.9462 11.7143 14.103 10.5575 14.103 9.14286C14.103 7.79018 13.0366 6.70703 11.7057 6.61161C11.1817 5.10324 9.7855 4 8.10303 4ZM8.10303 7.42857L6.38874 9.14286H7.67446V12.5714H8.5316V9.14286H9.81731L8.10303 7.42857Z" fill="#444444"/>
</svg>
