<svg width="16" height="16" viewBox="0 0 16 16" fill="none" xmlns="http://www.w3.org/2000/svg">
<path d="M7.46061 1.5V2.54688C5.94811 2.78516 4.79395 4.02539 4.79395 5.5C4.79395 6.38867 5.2377 7.07422 5.82728 7.51562C6.41686 7.95703 7.12728 8.20312 7.79395 8.45312C8.46061 8.70312 9.08353 8.95703 9.49395 9.26562C9.90436 9.57422 10.1273 9.88672 10.1273 10.5C10.1273 11.5781 9.17103 12.5 7.99395 12.5C6.81061 12.5 5.86061 11.6094 5.86061 10.5V10H4.79395V10.5C4.79395 11.9824 5.94811 13.2148 7.46061 13.4531V14.5H8.52728V13.4531C10.0439 13.2129 11.1939 11.9629 11.1939 10.5C11.1939 9.60938 10.7502 8.92773 10.1606 8.48438C9.57103 8.04102 8.86061 7.78125 8.19395 7.53125C7.52728 7.28125 6.90436 7.04102 6.49395 6.73438C6.08353 6.42773 5.86061 6.10938 5.86061 5.5C5.86061 4.4043 6.8127 3.5 7.99395 3.5C9.17728 3.5 10.1273 4.39062 10.1273 5.5V6H11.1939V5.5C11.1939 4.01758 10.0398 2.78516 8.52728 2.54688V1.5H7.46061Z" fill="#444444"/>
</svg>
