<svg width="14" height="13" viewBox="0 0 14 13" fill="none" xmlns="http://www.w3.org/2000/svg">
<path d="M7 0C4.243 0 2 2.243 2 5C2 7.757 4.243 10 7 10C9.757 10 12 7.757 12 5C12 2.243 9.757 0 7 0ZM7 1C9.2055 1 11 2.7945 11 5C11 7.2055 9.2055 9 7 9C4.7945 9 3 7.2055 3 5C3 2.7945 4.7945 1 7 1ZM6.5 2V2.59473C6.4275 2.62098 6.35703 2.65306 6.29004 2.68945C6.22305 2.72585 6.1591 2.76691 6.09863 2.8125C6.03816 2.85809 5.98164 2.9081 5.92871 2.96191C5.82285 3.06955 5.7327 3.19232 5.66309 3.32715C5.62828 3.39456 5.59844 3.46531 5.57422 3.53809C5.52578 3.68363 5.5 3.83875 5.5 4C5.5 4.1025 5.51105 4.20273 5.53125 4.2998C5.57164 4.49395 5.65027 4.6752 5.75879 4.83496C5.81305 4.91484 5.87426 4.98949 5.94238 5.05762C6.07863 5.19387 6.24086 5.3043 6.41992 5.38086C6.59898 5.45742 6.795 5.5 7 5.5C7.07125 5.5 7.13801 5.51348 7.19824 5.53809C7.25848 5.5627 7.31176 5.59887 7.35645 5.64355C7.40113 5.68824 7.4373 5.74152 7.46191 5.80176C7.48652 5.86199 7.5 5.92875 7.5 6C7.5 6.21375 7.37895 6.38809 7.19824 6.46191C7.13801 6.48652 7.07125 6.5 7 6.5C6.92875 6.5 6.86199 6.48652 6.80176 6.46191C6.74152 6.4373 6.68824 6.40113 6.64355 6.35645C6.55418 6.26707 6.5 6.1425 6.5 6H5.5C5.5 6.08062 5.50691 6.16013 5.51953 6.2373C5.53215 6.31448 5.55 6.38914 5.57422 6.46191C5.59844 6.53469 5.62828 6.60544 5.66309 6.67285C5.69789 6.74026 5.73785 6.80414 5.78223 6.86523C5.8266 6.92633 5.87578 6.98427 5.92871 7.03809C5.98164 7.0919 6.03816 7.14191 6.09863 7.1875C6.1591 7.23309 6.22305 7.27415 6.29004 7.31055C6.35703 7.34694 6.4275 7.37902 6.5 7.40527V8H7.5V7.40527C8.0075 7.22152 8.39215 6.77755 8.48047 6.2373C8.49309 6.16013 8.5 6.08062 8.5 6C8.5 5.8975 8.48895 5.79727 8.46875 5.7002C8.44855 5.60312 8.41914 5.50945 8.38086 5.41992C8.34258 5.33039 8.29547 5.24492 8.24121 5.16504C8.18695 5.08516 8.12574 5.01051 8.05762 4.94238C7.98949 4.87426 7.91484 4.81305 7.83496 4.75879C7.75508 4.70453 7.66961 4.65742 7.58008 4.61914C7.49055 4.58086 7.39688 4.55145 7.2998 4.53125C7.20273 4.51105 7.1025 4.5 7 4.5C6.92875 4.5 6.86199 4.48652 6.80176 4.46191C6.74152 4.4373 6.68824 4.40113 6.64355 4.35645C6.59887 4.31176 6.5627 4.25848 6.53809 4.19824C6.51348 4.13801 6.5 4.07125 6.5 4C6.5 3.92875 6.51348 3.86199 6.53809 3.80176C6.5627 3.74152 6.59887 3.68824 6.64355 3.64355C6.68824 3.59887 6.74152 3.5627 6.80176 3.53809C6.86199 3.51348 6.92875 3.5 7 3.5C7.285 3.5 7.5 3.715 7.5 4H8.5C8.5 3.91938 8.49309 3.83987 8.48047 3.7627C8.46785 3.68552 8.45 3.61086 8.42578 3.53809C8.28047 3.10145 7.935 2.75223 7.5 2.59473V2H6.5ZM0 9V13H1V10H3.69043C3.26493 9.7175 2.88054 9.379 2.54004 9H0ZM11.46 9C11.1195 9.379 10.7351 9.7175 10.3096 10H13V13H14V9H11.46ZM2 11V12H12V11H2Z" fill="#444444"/>
</svg>
