<svg width="42" height="42" viewBox="0 0 42 42" fill="none" xmlns="http://www.w3.org/2000/svg">
<path d="M5.5 30H2V10.5H22.5V15.5M31.5 22.5H22.5V15.5M31.5 22.5V30M31.5 22.5V20L27.5 15.5H22.5M31.5 30H33.5M31.5 30H29M12.5 30H22" stroke="#E9511D" stroke-width="2" stroke-linecap="round"/>
<path d="M39.5001 10C39.5001 9.33333 38.9001 8 36.5001 8M36.5001 8C34.1001 8 33.5001 9.33333 33.5001 10C33.3334 10.6667 33.7001 12.2 36.5001 13C39.3001 13.8 39.6668 15 39.5001 15.5C39.5001 16.1667 38.9 17.5 36.5 17.5M36.5001 8L36.5 6M36.5 17.5C34.1 17.5 33.1667 16.1667 33 15.5M36.5 17.5V19.5" stroke="#E9511D" stroke-width="2" stroke-linecap="round"/>
<path d="M12 31C12 32.6569 10.6569 34 9 34C7.34315 34 6 32.6569 6 31C6 29.3431 7.34315 28 9 28C10.2574 28 11.3365 28.7739 11.7823 29.8752C11.9224 30.2212 12 30.6003 12 31ZM28.5 31C28.5 32.6569 27.1569 34 25.5 34C23.8431 34 22.5 32.6569 22.5 31C22.5 29.3431 23.8431 28 25.5 28C27.1569 28 28.5 29.3431 28.5 31Z" stroke="#E9511D" stroke-width="2"/>
</svg>
