<svg width="42" height="42" viewBox="0 0 42 42" fill="none" xmlns="http://www.w3.org/2000/svg">
<path d="M35.5001 8.5C35.5001 7.83333 34.9001 6.5 32.5001 6.5M32.5001 6.5C30.1001 6.5 29.5001 7.83333 29.5001 8.5C29.3334 9.16667 29.7001 10.7 32.5001 11.5C35.3001 12.3 35.6668 13.5 35.5001 14C35.5001 14.6667 34.9 16 32.5 16M32.5001 6.5L32.5 4.5M32.5 16C30.1 16 29.1667 14.6667 29 14M32.5 16V18" stroke="#E9511D" stroke-width="2" stroke-linecap="round"/>
<path d="M18 24H24.747C25.3896 24.6914 26.8675 26.8 27.6386 29.7037C28.6024 33.3333 27.6386 38 24.747 38C22.4337 38 19.2851 38 18 38" stroke="#E9511D" stroke-width="2"/>
<path d="M18 24H11.253C10.6104 24.6914 9.13253 26.8 8.36145 29.7037C7.39759 33.3333 8.36145 38 11.253 38C13.5663 38 16.7149 38 18 38" stroke="#E9511D" stroke-width="2"/>
<path d="M25 13.5C25 17.6421 21.6421 21 17.5 21C13.3579 21 10 17.6421 10 13.5C10 9.35786 13.3579 6 17.5 6C21.6421 6 25 9.35786 25 13.5Z" stroke="#E9511D" stroke-width="2"/>
</svg>
