<svg width="42" height="42" viewBox="0 0 42 42" fill="none" xmlns="http://www.w3.org/2000/svg">
<path d="M21 2L2.5 8V12H4M21 12H4M21 4.5L5.5 9.5H21M4 12V14.5H5M21 14.5H11.5M5 14.5V17.5H6.5M5 14.5H11.5M11.5 14.5V17.5H10M6.5 17.5V31.5M6.5 17.5H10M10 17.5V31.5M5 33.5V31.5H11.5V33.5M21 33.5H4V36.5M21 36.5H2.5V39.5H21M22.5 21.5C22.5 21 21.5 20.5 21 20.5M21 20.5C19.8 20.5 19.5 21.5 19.5 22C19.5 22.3333 19.8 23.1 21 23.5C22.2 23.9 22.8333 24.6667 23 25C23.3333 25.8333 23.4 27.5 21 27.5M21 20.5V19M21 27.5C18.6 27.5 18.3333 25.8333 18.5 25M21 27.5V29" stroke="#E9511D" stroke-linecap="round"/>
<path d="M21 2L39.5 8V12H38M21 12H38M21 4.5L36.5 9.5H21M38 12V14.5H37M21 14.5H30.5M37 14.5V17.5H35.5M37 14.5H30.5M30.5 14.5V17.5H32M35.5 17.5V31.5M35.5 17.5H32M32 17.5V31.5M37 33.5V31.5H30.5V33.5M21 33.5H38V36.5M21 36.5H39.5V39.5H21" stroke="#E9511D" stroke-linecap="round"/>
<circle cx="21" cy="24" r="7" stroke="#E9511D"/>
</svg>
