<svg width="42" height="42" viewBox="0 0 42 42" fill="none" xmlns="http://www.w3.org/2000/svg">
<path d="M38.9286 21V14.4286C38.9286 14.1524 38.7047 13.9286 38.4286 13.9286H11.9286C11.6524 13.9286 11.4286 14.1524 11.4286 14.4286V31.1071C11.4286 31.3833 11.6524 31.6071 11.9286 31.6071H24.7857M25.9643 19.8214H35M25.9643 17.4643H35M14.1786 24.1429H24.7857M14.1786 26.5H24.7857M14.1786 28.8571H24.7857M9.07143 25.1429H4.35714M4.35714 22.5C6.50503 22.5 6.92355 22.5 9.07143 22.5M4.35714 19.8214H9.07143M9.46429 28.0714H2.5C2.22386 28.0714 2 27.8476 2 27.5714V10.5C2 10.2239 2.22386 10 2.5 10H29.7857C30.0619 10 30.2857 10.2239 30.2857 10.5V12.3571" stroke="#E9511D" stroke-linecap="round"/>
<path d="M38.8358 24.1428H31.4641L38.4411 24.5304C38.494 24.5334 38.5355 24.5772 38.5355 24.6303V29.15C38.5355 29.2052 38.4907 29.25 38.4355 29.25H36.8474C36.7539 29.25 36.7116 29.3669 36.7834 29.4268L38.8582 31.1558C38.8979 31.1889 38.9564 31.1862 38.9929 31.1497L40.7219 29.4207C40.7849 29.3577 40.7403 29.25 40.6512 29.25H39.4138C39.3616 29.25 39.3181 29.2097 39.3141 29.1576L38.9355 24.2352C38.9315 24.1831 38.888 24.1428 38.8358 24.1428Z" fill="#E9511D"/>
<path d="M29.9853 32H37.7498L30.3803 31.6121C30.3271 31.6093 30.2855 31.5654 30.2855 31.5122V26.9928C30.2855 26.9376 30.3303 26.8928 30.3855 26.8928H32.0084C32.0975 26.8928 32.1421 26.7851 32.0791 26.7221L29.9634 24.6064C29.9243 24.5673 29.861 24.5673 29.8219 24.6064L27.7062 26.7221C27.6432 26.7851 27.6878 26.8928 27.7769 26.8928H29.4072C29.4594 26.8928 29.5029 26.9331 29.5069 26.9852L29.8855 31.9076C29.8896 31.9597 29.933 32 29.9853 32Z" fill="#E9511D"/>
<path d="M38.8358 24.1428H31.4641L38.4411 24.5304C38.494 24.5334 38.5355 24.5772 38.5355 24.6303V29.15C38.5355 29.2052 38.4907 29.25 38.4355 29.25H36.8474C36.7539 29.25 36.7116 29.3669 36.7834 29.4268L38.8582 31.1558C38.8979 31.1889 38.9564 31.1862 38.9929 31.1497L40.7219 29.4207C40.7849 29.3577 40.7403 29.25 40.6512 29.25H39.4138C39.3616 29.25 39.3181 29.2097 39.3141 29.1576L38.9355 24.2352C38.9315 24.1831 38.888 24.1428 38.8358 24.1428Z" stroke="#E9511D" stroke-linecap="round"/>
<path d="M29.9853 32H37.7498L30.3803 31.6121C30.3271 31.6093 30.2855 31.5654 30.2855 31.5122V26.9928C30.2855 26.9376 30.3303 26.8928 30.3855 26.8928H32.0084C32.0975 26.8928 32.1421 26.7851 32.0791 26.7221L29.9634 24.6064C29.9243 24.5673 29.861 24.5673 29.8219 24.6064L27.7062 26.7221C27.6432 26.7851 27.6878 26.8928 27.7769 26.8928H29.4072C29.4594 26.8928 29.5029 26.9331 29.5069 26.9852L29.8855 31.9076C29.8896 31.9597 29.933 32 29.9853 32Z" stroke="#E9511D" stroke-linecap="round"/>
<path d="M20.7554 17.9154C20.7554 17.6438 20.5109 17.1006 19.5332 17.1006M19.5332 17.1006C18.5554 17.1006 18.3109 17.6438 18.3109 17.9154C18.243 18.187 18.3924 18.8117 19.5332 19.1376C20.6739 19.4635 20.8233 19.9524 20.7554 20.1561C20.7554 20.4277 20.5109 20.971 19.5331 20.971M19.5332 17.1006L19.5331 16.2858M19.5331 20.971C18.5553 20.971 18.1751 20.4277 18.1072 20.1561M19.5331 20.971V21.7858" stroke="#E9511D" stroke-width="1.03704" stroke-linecap="round"/>
<path d="M7.4274 14.3068C7.4274 14.1128 7.2528 13.7248 6.55439 13.7248M6.55439 13.7248C5.85597 13.7248 5.68137 14.1128 5.68137 14.3068C5.63287 14.5008 5.73957 14.9471 6.55439 15.1799C7.3692 15.4127 7.4759 15.7619 7.4274 15.9074C7.42739 16.1014 7.25277 16.4894 6.55435 16.4894M6.55439 13.7248L6.55435 13.1428M6.55435 16.4894C5.85594 16.4894 5.58434 16.1014 5.53584 15.9074M6.55435 16.4894V17.0714" stroke="#E9511D" stroke-width="0.740741" stroke-linecap="round"/>
</svg>
