<svg width="42" height="42" viewBox="0 0 42 42" fill="none" xmlns="http://www.w3.org/2000/svg">
<g clip-path="url(#clip0_1554_8)">
<path d="M24.4998 17C24.6665 15.5 24.1998 12.7 20.9998 13.5M20.9998 13.5C17.7998 14.3 17.6665 17.1667 17.9998 18.5C18.1665 19.1667 19.0997 20.6 21.4998 21C23.8998 21.4 24.8331 23.1667 24.9998 24C25.1664 25 24.6998 27 21.4998 27M20.9998 13.5V11M21.4998 27C18.2998 27 17.8331 25 17.9998 24M21.4998 27V29M13.4998 32C11.4998 30.3333 8.09978 25 10.4998 17L13.4998 20L14.5 5L1 9.5L4 12C1.66655 19.8333 1.79969 36.4 20.9998 40M29 8C31.1667 9.83333 34.9 15.6 32.5 24L29 20L28 34.5L41.5 30.5L38 27C40.1665 19.5 39.8996 3.8 21.4998 1" stroke="#E9511D" stroke-width="2" stroke-linecap="round"/>
</g>
<defs>
<clipPath id="clip0_1554_8">
<rect width="42" height="42" fill="white"/>
</clipPath>
</defs>
</svg>
