<svg width="42" height="42" viewBox="0 0 42 42" fill="none" xmlns="http://www.w3.org/2000/svg">
<g clip-path="url(#clip0_1554_5)">
<path d="M6.07143 31.2118L7.42857 32.5465M8.33333 28.3643L6.07143 26.3177L2 30.7669L12.8571 41L17.381 36.5508L15.4141 34.7711M8.33333 28.3643L11.0476 25.4278C11.8016 24.538 13.8524 22.8473 16.0238 23.2032C18.7381 23.6482 20.0952 25.4278 25.0714 24.9829C28.1747 24.7055 29.4636 25.3112 29.8812 25.8728M8.33333 28.3643L15.4141 34.7711M17.381 28.3643C17.2302 28.8685 18.3762 29.877 24.1667 29.877C29.9571 29.877 30.5 27.5041 30.0476 26.3177C30.0476 26.1869 29.9992 26.0316 29.8812 25.8728M29.8812 25.8728L34.119 21.8685C35.7778 20.5337 39.2762 18.843 40 22.7583L31.4048 32.1016C30.6508 32.8431 28.5095 34.3262 25.9762 34.3262C23.4429 34.3262 17.8792 34.6228 15.4141 34.7711M16.0238 20.9786C15.5714 17.7159 16.2048 10.5675 22.3571 8.076M22.3571 8.076H28.6905M22.3571 8.076L21 4.51665C20.5476 3.4785 20.5476 1.4912 24.1667 1.84713C27.7857 2.20307 29.5952 1.69882 30.0476 1.40221C30.9524 0.808986 32.3095 0.42339 30.5 3.62681C28.6905 6.83022 28.5397 7.92769 28.6905 8.076M28.6905 8.076C30.8016 9.55906 34.8429 13.771 34.119 18.7541M27.7857 14.7498C27.7857 14.0083 27.3333 12.5252 25.5238 12.5252M25.5238 12.5252C23.7143 12.5252 23.2619 14.0083 23.2619 14.7498C23.2619 15.343 23.7143 16.6184 25.5238 16.9744C27.3333 17.3303 27.7857 19.199 27.7857 20.0888C27.7857 20.682 27.3333 21.8685 25.5238 21.8685M25.5238 12.5252V11.1904M25.5238 21.8685C23.7143 21.8685 23.2619 20.682 23.2619 20.0888M25.5238 21.8685V23.2032" stroke="#E9511D" stroke-width="2" stroke-linecap="round"/>
</g>
<defs>
<clipPath id="clip0_1554_5">
<rect width="42" height="42" fill="white"/>
</clipPath>
</defs>
</svg>
