<svg width="42" height="42" viewBox="0 0 42 42" fill="none" xmlns="http://www.w3.org/2000/svg">
<path d="M14 17C14 19.4 9 19.6667 6.5 19.5V5.50001C9 5.16668 14 5.50002 14 9.50002M14 17C14.8333 17.8333 17.3 19.6 20.5 20M14 17C14 16.1667 14 13.5 14 9.50002M20.5 20C23.7 20.4 28.1667 20.1667 30 20M20.5 20C19.6667 21.3333 17.8 24.5 17 26.5C16 29 15 35.5 20 39C25 42.5 33.5 40.5 34.5 35C35.5 29.5 32 23 30 20M30 20C31.5 19.6667 34.5 18 34.5 14C34.5 10 31.5 8.33335 30 8.00001M30 8.00001C28.3333 8.66668 24.7 9.70001 23.5 8.50001C22.3 7.30001 21 4.66668 20.5 3.50001C20.6667 2.50001 22.2 0.800014 27 2.00001C28 2.16668 30.5 2.40001 32.5 2.00001C34.5 1.60001 31.6667 5.83335 30 8.00001ZM14 9.50002C15.6667 9.16668 19.4 7.90001 21 5.50001M10 10.5V12M28.5 28C28.3333 27.3333 27.5 26 25.5 26M25.5 26C23.5 26 22.6667 27.3333 22.5 28C22.3333 28.8333 22.7 30.6 25.5 31C28.3 31.4 29 32.5 29 33C29.1667 33.6667 28.8 35 26 35C25.8266 35 25.66 34.9962 25.5 34.9889M25.5 26V24.5M22 33.5C22.1563 33.9691 23.0754 34.8781 25.5 34.9889M25.5 34.9889V36.5" stroke="#E9511D" stroke-width="2" stroke-linecap="round"/>
</svg>
