<svg width="42" height="42" viewBox="0 0 42 42" fill="none" xmlns="http://www.w3.org/2000/svg">
<g clip-path="url(#clip0_1554_13)">
<path d="M27.269 30.2982H4.88789V25.6054M36.6547 18.3856V12.6099L33.7668 12.6427M33.7668 12.6427L4.88789 12.9708V25.6054M33.7668 12.6427V9H2V25.6054H4.88789M15.3565 15.8587H10.3027L7.77578 18.3856V24.8834L10.3027 27.7713H15.3565M25.8251 15.8587H32.3228M22.2152 20.1906C22.2152 19.7093 21.9264 18.7466 20.7713 18.7466M20.7713 18.7466C19.6161 18.7466 19.3273 19.7093 19.3273 20.1906C19.3273 20.6719 19.6161 21.6345 20.7713 21.6345C21.9264 21.6345 22.2152 22.5971 22.2152 23.0785C22.2152 23.4394 21.9264 24.1614 20.7713 24.1614M20.7713 18.7466V17.6637M20.7713 24.1614C19.6161 24.1614 19.3273 23.4394 19.3273 23.0785M20.7713 24.1614V25.2444M20.7713 15.8587C18.9663 15.7384 14.9955 16.7166 14.9955 21.6345C14.9955 26.3273 18.7257 27.4103 20.7713 27.4103C22.5762 27.5306 26.1861 26.7003 26.1861 21.2735C26.1861 16.9417 22.2152 15.8587 20.7713 15.8587Z" stroke="#E9511D" stroke-width="1.6129" stroke-linecap="round"/>
<path d="M34.7551 20.085C30.2279 20.449 29.1159 23.216 29.2517 25.8442C29.2764 26.3224 29.8542 26.2213 29.9217 25.7473C30.3975 22.402 32.8206 21.413 34.4998 21.3557C34.7224 21.3481 34.8924 21.5402 34.8796 21.7626L34.8229 22.7504C34.805 23.0633 35.1353 23.2762 35.4128 23.1306L37.551 22.009C37.7738 21.8921 37.8364 21.602 37.6815 21.4037L35.9686 19.2101C35.7684 18.9537 35.3627 19.0277 35.2659 19.3382L35.1222 19.7988C35.0722 19.9593 34.9226 20.0715 34.7551 20.085Z" fill="#E9511D"/>
<path d="M32.4327 32.9703L31.2276 30.673C31.1241 30.4758 31.2002 30.2321 31.3974 30.1286L33.6064 28.9699C33.8839 28.8243 34.2142 29.0371 34.1962 29.35L34.1438 30.2631C34.1295 30.5126 34.3443 30.7155 34.5908 30.675C37.389 30.2148 38.7366 28.6294 39.2972 26.9238C39.4487 26.4628 40.344 26.3552 40.3235 26.84C40.1609 30.6914 36.2907 32.4185 33.6599 32.3836C33.4728 32.3811 33.3014 32.4965 33.2457 32.6751L33.1747 32.903C33.0677 33.2459 32.5995 33.2884 32.4327 32.9703Z" fill="#E9511D"/>
</g>
<defs>
<clipPath id="clip0_1554_13">
<rect width="42" height="42" fill="white"/>
</clipPath>
</defs>
</svg>
