<svg width="16" height="16" viewBox="0 0 16 16" fill="none" xmlns="http://www.w3.org/2000/svg">
<path d="M7.47705 2C4.68799 2 2.34814 3.91478 1.68018 6.49711H2.71143C3.3501 4.47107 5.24268 2.99936 7.47705 2.99936C10.2349 2.99936 12.4771 5.2401 12.4771 7.99614C12.4771 10.7522 10.2349 12.9929 7.47705 12.9929C5.24268 12.9929 3.3501 11.5212 2.71143 9.49518H1.68018C2.34814 12.0775 4.68799 13.9923 7.47705 13.9923C10.7856 13.9923 13.4771 11.3026 13.4771 7.99614C13.4771 4.68968 10.7856 2 7.47705 2ZM7.14893 5.63829L6.43018 6.35657L7.5708 7.49647H1.47705V8.49582H7.5708L6.43018 9.63572L7.14893 10.354L9.14893 8.35529L9.49268 7.99614L9.14893 7.637L7.14893 5.63829Z" fill="#444444"/>
</svg>
